<svg width="16" height="16" viewBox="0 0 16 16" fill="none" xmlns="http://www.w3.org/2000/svg">
<path d="M7.39897 2.5358H3.60797C2.35175 2.5358 1.33337 3.55414 1.33337 4.81033V12.3922C1.33337 13.6483 2.35175 14.6667 3.60797 14.6667H11.19C12.4462 14.6667 13.4646 13.6483 13.4646 12.3922L13.4646 8.60124M5.12437 10.8757L7.88294 10.3199C8.02939 10.2904 8.16385 10.2183 8.26945 10.1126L14.4448 3.93412C14.7409 3.63789 14.7407 3.15772 14.4443 2.86174L13.1362 1.5551C12.84 1.25925 12.36 1.25945 12.0641 1.55555L5.88811 7.73472C5.78271 7.84017 5.71074 7.97436 5.68121 8.12049L5.12437 10.8757Z" stroke="#E1C699" stroke-linecap="round" stroke-linejoin="round"/>
</svg>
