<svg width="119" height="94" viewBox="0 0 119 94" fill="none" xmlns="http://www.w3.org/2000/svg">
<path d="M72.5268 57.655H17.748L3.00001 68.9332V18.9256C3.00001 10.1302 10.1302 3 18.9256 3H72.5268C81.3223 3 88.4525 10.1302 88.4525 18.9256V41.7293C88.4525 50.5248 81.3223 57.655 72.5268 57.655Z" fill="#E1C699"/>
<path d="M72.5268 57.655H17.748L3.00001 68.9332V18.9256C3.00001 10.1302 10.1302 3 18.9256 3H72.5268C81.3223 3 88.4525 10.1302 88.4525 18.9256V41.7293C88.4525 50.5248 81.3223 57.655 72.5268 57.655Z" stroke="#3A3A3A" stroke-width="4.88816" stroke-linecap="round" stroke-linejoin="round"/>
<path d="M20.5644 16.2246H70.6681" stroke="#3A3A3A" stroke-width="4.88816" stroke-linecap="round" stroke-linejoin="round"/>
<path d="M20.5644 30.4817H70.6681" stroke="#3A3A3A" stroke-width="4.88816" stroke-linecap="round" stroke-linejoin="round"/>
<path d="M20.5644 44.7388H52.7448" stroke="#3A3A3A" stroke-width="4.88816" stroke-linecap="round" stroke-linejoin="round"/>
<path d="M46.6252 79.6518H101.404L116.152 90.93V40.9225C116.152 32.127 109.022 24.9968 100.226 24.9968H46.6252C37.8298 24.9968 30.6996 32.127 30.6996 40.9225V63.7262C30.6996 72.5216 37.8298 79.6518 46.6252 79.6518Z" fill="#F5F5DC"/>
<path d="M46.6252 79.6518H101.404L116.152 90.93V40.9225C116.152 32.127 109.022 24.9968 100.226 24.9968H46.6252C37.8298 24.9968 30.6996 32.127 30.6996 40.9225V63.7262C30.6996 72.5216 37.8298 79.6518 46.6252 79.6518Z" stroke="#3A3A3A" stroke-width="4.88816" stroke-linecap="round" stroke-linejoin="round"/>
<path d="M98.775 38.2212H48.6713" stroke="#3A3A3A" stroke-width="4.88816" stroke-linecap="round" stroke-linejoin="round"/>
<path d="M98.775 52.4785H48.6713" stroke="#3A3A3A" stroke-width="4.88816" stroke-linecap="round" stroke-linejoin="round"/>
<path d="M98.775 66.7356H66.5946" stroke="#3A3A3A" stroke-width="4.88816" stroke-linecap="round" stroke-linejoin="round"/>
</svg>
