<svg width="21" height="20" viewBox="0 0 21 20" fill="none" xmlns="http://www.w3.org/2000/svg">
<path d="M10.5 19C15.4706 19 19.5 14.9706 19.5 10C19.5 5.02944 15.4706 1 10.5 1C5.52944 1 1.5 5.02944 1.5 10C1.5 14.9706 5.52944 19 10.5 19Z" stroke="#E1C699" stroke-width="2" stroke-linecap="round" stroke-linejoin="round"/>
<path d="M9.807 7.739L13.5 7L12.761 10.693C12.6836 11.0801 12.4935 11.4356 12.2144 11.7148C11.9354 11.994 11.58 12.1844 11.193 12.262L7.5 13L8.239 9.307C8.31654 8.92011 8.50678 8.5648 8.78579 8.28579C9.0648 8.00678 9.42011 7.81654 9.807 7.739Z" stroke="#E1C699" stroke-width="2" stroke-linecap="round" stroke-linejoin="round"/>
</svg>
