<svg width="25" height="24" viewBox="0 0 25 24" fill="none" xmlns="http://www.w3.org/2000/svg">
<g id="iconamoon:discover-thin">
<g id="Group">
<path id="Vector" d="M12.5 21C17.4706 21 21.5 16.9706 21.5 12C21.5 7.02944 17.4706 3 12.5 3C7.52944 3 3.5 7.02944 3.5 12C3.5 16.9706 7.52944 21 12.5 21Z" stroke="white" stroke-width="2" stroke-linecap="round" stroke-linejoin="round"/>
<path id="Vector_2" d="M11.807 9.739L15.5 9L14.761 12.693C14.6836 13.0801 14.4935 13.4356 14.2144 13.7148C13.9354 13.994 13.58 14.1844 13.193 14.262L9.5 15L10.239 11.307C10.3165 10.9201 10.5068 10.5648 10.7858 10.2858C11.0648 10.0068 11.4201 9.81654 11.807 9.739Z" stroke="white" stroke-width="2" stroke-linecap="round" stroke-linejoin="round"/>
</g>
</g>
</svg>
