<svg width="41" height="40" viewBox="0 0 41 40" fill="none" xmlns="http://www.w3.org/2000/svg">
<path d="M14.4344 1.31562C10.4378 2.70208 6.99107 5.33364 4.60059 8.82375C2.21012 12.3139 1.00185 16.4786 1.15326 20.7061C1.30466 24.9337 2.80777 29.0013 5.4418 32.3115C8.07583 35.6216 11.7019 37.9999 15.7875 39.0969C19.0998 39.9515 22.57 39.9891 25.9 39.2062C28.9166 38.5286 31.7056 37.0793 33.9937 35C36.3752 32.7698 38.1039 29.9327 38.9937 26.7937C39.9607 23.3802 40.1328 19.7904 39.4969 16.3H20.8969V24.0156H31.6687C31.4535 25.2462 30.9921 26.4207 30.3123 27.4688C29.6326 28.517 28.7483 29.4172 27.7125 30.1156C26.3973 30.986 24.9145 31.5715 23.3594 31.8344C21.7998 32.1244 20.2002 32.1244 18.6406 31.8344C17.0599 31.5079 15.5645 30.8555 14.25 29.9187C12.138 28.4237 10.5521 26.2998 9.71875 23.85C8.87153 21.3543 8.87153 18.6488 9.71875 16.1531C10.312 14.4038 11.2926 12.811 12.5875 11.4937C14.0693 9.95858 15.9454 8.86123 18.0099 8.32211C20.0743 7.78298 22.2474 7.8229 24.2906 8.43749C25.8869 8.92725 27.3465 9.78336 28.5531 10.9375C29.7677 9.72916 30.9802 8.5177 32.1906 7.30312C32.8156 6.64999 33.4969 6.02812 34.1125 5.35937C32.2704 3.64536 30.1083 2.31157 27.75 1.43437C23.4553 -0.125038 18.7562 -0.166945 14.4344 1.31562Z" fill="white"/>
<path d="M14.4344 1.31563C18.7558 -0.167945 23.455 -0.12714 27.75 1.43125C30.1087 2.31441 32.2699 3.65463 34.1094 5.375C33.4844 6.04375 32.825 6.66875 32.1875 7.31875C30.975 8.52917 29.7635 9.73542 28.5531 10.9375C27.3465 9.78337 25.8869 8.92726 24.2906 8.4375C22.248 7.82076 20.0751 7.77853 18.0101 8.31545C15.9451 8.85237 14.0679 9.94769 12.5844 11.4813C11.2895 12.7986 10.3088 14.3913 9.71563 16.1406L3.2375 11.125C5.55628 6.52676 9.57109 3.00945 14.4344 1.31563Z" fill="#E33629"/>
<path d="M1.51875 16.0938C1.86668 14.368 2.44477 12.6969 3.2375 11.125L9.71562 16.1531C8.8684 18.6488 8.8684 21.3543 9.71562 23.85C7.55729 25.5167 5.39791 27.1917 3.2375 28.875C1.25359 24.926 0.648537 20.4266 1.51875 16.0938Z" fill="#F8BD00"/>
<path d="M20.8969 16.2969H39.4969C40.1328 19.7873 39.9607 23.377 38.9937 26.7906C38.1039 29.9296 36.3753 32.7667 33.9937 34.9969C31.9031 33.3656 29.8031 31.7469 27.7125 30.1156C28.749 29.4165 29.6337 28.5153 30.3135 27.466C30.9933 26.4168 31.4543 25.2411 31.6687 24.0094H20.8969C20.8937 21.4406 20.8969 18.8687 20.8969 16.2969Z" fill="#587DBD"/>
<path d="M3.23438 28.875C5.39479 27.2083 7.55417 25.5333 9.7125 23.85C10.5475 26.3006 12.1356 28.4247 14.25 29.9188C15.5686 30.8512 17.0672 31.4983 18.65 31.8188C20.2095 32.1088 21.8092 32.1088 23.3687 31.8188C24.9238 31.5559 26.4067 30.9704 27.7219 30.1C29.8125 31.7313 31.9125 33.35 34.0031 34.9813C31.7153 37.0617 28.9263 38.5121 25.9094 39.1906C22.5794 39.9735 19.1091 39.9359 15.7969 39.0813C13.1772 38.3818 10.7302 37.1487 8.60938 35.4594C6.36477 33.6769 4.53136 31.431 3.23438 28.875Z" fill="#319F43"/>
</svg>
