<svg width="155" height="155" viewBox="0 0 155 155" fill="none" xmlns="http://www.w3.org/2000/svg">
<g clip-path="url(#clip0_139_2606)">
<mask id="mask0_139_2606" style="mask-type:luminance" maskUnits="userSpaceOnUse" x="0" y="0" width="155" height="155">
<path d="M154.25 0H0V154.25H154.25V0Z" fill="white"/>
</mask>
<g mask="url(#mask0_139_2606)">
<path d="M141.655 117.353C137.871 118.626 133.659 124.237 132.058 127.147H102.118C99.7532 122.272 93.2616 123.857 92.3156 124.512C91.4061 125.167 85.5853 125.385 89.4052 120.874C94.1346 115.308 102.409 117.979 105.501 119.762C105.429 118.998 104.446 116.706 100.954 113.759C97.3158 110.667 99.6441 108.339 103.537 109.867C107.066 111.249 110.594 117.434 110.594 117.434C110.594 117.434 112.571 106.156 116.1 101.318C119.483 96.6609 122.103 100.117 120.793 103.573C119.665 106.52 118.562 111.249 118.598 113.287C121.072 110.085 127.842 104.054 134.245 102.235C141.267 100.234 142.394 105.255 138.32 106.564C134.245 107.91 125.219 119.18 125.219 119.18C125.219 119.18 132.96 114.006 140.963 116.043C142.309 116.48 142.6 117.062 141.655 117.353Z" fill="#EBEBEB"/>
<path d="M46.8774 137.73L22.0461 137.734C17.535 126.856 28.0124 127.915 30.6681 130.498C28.3398 127.479 28.3398 118.893 33.251 116.929C42.2713 113.515 45.8588 128.853 46.8774 137.73Z" fill="#F8F8F8"/>
<path d="M40.5998 71.4135C39.8722 71.2316 39.1446 71.0861 38.3443 70.9769C36.0523 70.5404 33.433 70.0674 30.5954 68.8305C30.4499 68.7578 28.9583 67.6664 30.3407 66.3203C30.3407 66.3203 29.1038 65.9201 29.3221 64.9015C29.4676 64.1012 30.0497 63.9193 30.5226 63.9193C30.4135 63.8829 29.7223 63.6282 29.9769 62.8279C30.3043 61.8092 31.0319 61.591 31.5776 61.7365C31.5413 61.7001 31.0683 61.4454 31.2866 60.7179C31.3957 60.4268 31.8687 60.0266 32.8873 60.0994C34.6699 60.2813 36.8163 61.0089 36.8163 61.0089C36.8163 61.0089 36.9982 60.2813 37.4712 59.6628C38.6353 58.0258 39.6903 58.1713 40.7089 58.8625C42.3824 59.9539 42.1641 62.4277 42.1641 62.4277C42.1641 62.4277 43.5829 63.0098 44.4561 63.3736C44.5652 63.4099 44.7107 63.4827 44.8199 63.5555C44.8199 63.5555 44.8199 63.5918 44.8562 63.5918C47.9485 67.3026 43.7285 71.5954 40.5998 71.4135Z" fill="#DFA391"/>
<path d="M41.8004 71.8864C41.764 72.0683 40.6362 71.7772 40.3088 71.1224C39.9814 70.4312 42.0186 62.7551 42.7098 62.6095C43.4011 62.464 44.3106 62.7914 44.3106 62.7914C44.3106 62.7914 41.8004 71.7409 41.8004 71.8864Z" fill="#4879BB"/>
<path d="M68.6849 40.5271C68.3211 40.9273 67.9937 41.3638 67.7027 41.8004C67.3752 42.3097 67.0842 42.819 66.8659 43.3647C65.7018 46.0204 65.6654 49.0036 65.4471 51.8776C65.2288 55.1881 65.2288 58.4987 65.0469 61.7729C65.0106 62.2822 65.0469 65.9201 64.0283 65.811C57.007 64.9379 53.078 63.4463 50.0221 62.7551C47.1845 62.1367 44.165 60.9725 43.4374 63.0098C42.8553 64.6469 39.9813 72.4684 42.0913 73.487C46.3114 75.5606 70.0673 81.927 74.542 80.9448C80.7994 79.526 84.5101 51.6229 83.5278 42.9645C83.2004 39.9814 81.5997 37.3257 78.4347 36.8527C74.8331 36.2707 71.086 37.835 68.6849 40.5271Z" fill="#E1C699"/>
<path d="M34.8154 57.1889C35.2884 57.0798 35.7613 57.3708 35.8705 57.8438L39.181 71.1951C39.2901 71.6681 38.9991 72.141 38.5262 72.2501C38.0532 72.3593 37.5803 72.0682 37.4712 71.5953L34.1606 58.2439C34.0515 57.771 34.3425 57.2981 34.8154 57.1889Z" fill="#E1C699"/>
<path d="M36.0523 67.9939C36.0523 69.4855 34.4516 69.4855 33.6149 69.3036C33.5785 69.3763 33.2147 69.3763 32.1233 68.9034C31.0683 68.3941 32.7781 62.9371 33.7968 60.2814C35.0337 60.4269 36.1614 60.9362 36.598 61.1545C38.708 56.8253 39.9085 59.4447 40.2723 61.2636C39.7994 61.8821 38.6353 63.1554 37.7258 63.2645C36.9254 63.3373 36.598 62.7916 36.4889 62.4278L36.598 63.119C37.0346 63.6283 36.4525 64.3559 35.9068 64.7561C36.8163 65.6656 36.0523 66.7934 35.5794 67.1935C35.8704 67.4846 36.0523 67.6301 36.0523 67.9939Z" fill="#DFA391"/>
<path d="M36.5617 61.1182C35.8704 62.5734 37.3984 63.5556 38.3079 63.119C39.2174 62.6825 40.1633 61.3001 40.1633 61.3001" stroke="#424D51" stroke-width="0.363797" stroke-linecap="round" stroke-linejoin="round"/>
<path d="M36.0523 64.6105C36.0523 64.6105 37.362 63.701 36.1251 62.646C35.252 61.882 32.4508 61.591 31.5776 61.7001" stroke="#424D51" stroke-width="0.363797" stroke-linecap="round" stroke-linejoin="round"/>
<path d="M35.7249 67.0116C35.7249 67.0116 37.2892 65.4109 35.4338 64.5014C34.4516 64.0285 31.0319 63.7738 30.4862 63.883" stroke="#424D51" stroke-width="0.363797" stroke-linecap="round" stroke-linejoin="round"/>
<path d="M32.1597 68.9761C32.1597 68.9761 33.6876 69.3399 35.0701 69.2671C35.6885 69.2308 36.0159 68.7215 36.0523 68.103C36.1251 66.1385 30.8136 66.2112 30.2679 66.4659" stroke="#424D51" stroke-width="0.363797" stroke-linecap="round" stroke-linejoin="round"/>
<path d="M66.575 66.2476L64.756 65.7019L64.8651 66.8297" stroke="#424D51" stroke-width="0.363797" stroke-linecap="round" stroke-linejoin="round"/>
<path d="M88.9238 127.184L101.584 126.347C101.329 112.377 101.075 98.4076 100.674 84.4014C100.674 80.1086 100.274 75.743 100.02 71.4866C99.8014 67.7031 99.8741 63.5558 98.9283 59.8087C98.6373 58.6811 78.3373 58.1354 77.9372 58.5718C76.8821 59.5906 76.2273 61.191 75.5725 62.4643C74.4083 64.7199 73.2806 66.9754 72.1892 69.2673C70.1883 73.451 68.1874 77.671 66.3684 81.9275C64.8405 85.5291 63.1306 89.6037 63.1306 93.569C63.1671 97.0978 68.2965 127.184 68.2965 127.184L80.9203 125.911C80.9203 125.911 77.3187 97.4616 76.8095 93.3871C76.6639 92.1503 77.7916 90.2584 78.2647 89.167C79.7199 85.5654 81.3932 82.0731 83.0667 78.5807C83.7579 77.1982 84.4128 75.7795 85.104 74.397C85.3222 73.9605 86.0863 72.9417 86.0498 72.4324C87.1412 90.6951 88.1962 108.921 88.9238 127.184Z" fill="#DFA391"/>
<path d="M79.6113 112.667L65.593 114.086L68.2002 128.311L81.4667 127.474L79.6113 112.667Z" fill="#CAE3FB"/>
<path d="M88.0085 113.596L101.572 113.505L101.693 127.438L88.7422 127.62L88.0085 113.596Z" fill="#CAE3FB"/>
<path d="M80.5204 126.492C80.5204 126.492 81.8301 126.565 81.9756 127.62C82.0483 128.311 81.6845 128.675 81.2844 128.966C81.2844 128.966 81.8664 129.33 82.3394 130.239C82.8487 131.149 83.649 132.895 83.1761 134.023C82.9578 134.532 70.043 133.987 70.043 133.987L56.4734 134.169C56.4734 134.169 57.0191 131.476 60.1477 130.676C62.949 129.948 63.5674 129.912 64.9499 129.766C65.823 129.657 66.5142 129.294 66.878 128.602C67.4237 127.547 67.7147 127.002 69.1335 126.674C70.2249 126.383 78.665 126.201 80.5204 126.492Z" fill="#92BDF9"/>
<path d="M83.2129 134.095C83.6131 133.695 80.8846 129.693 77.9378 129.402C75.2094 129.148 73.2812 131.512 71.4985 131.949C70.3345 132.24 68.5155 132.24 66.9511 132.24C66.26 132.24 57.5288 132.276 57.5288 132.276C57.5288 132.276 55.4552 133.804 56.4009 134.604C56.9104 135.078 82.8491 134.495 83.2129 134.095Z" fill="#4879BB"/>
<path d="M89.5062 126.82C89.5062 126.82 88.2329 126.893 88.0875 127.947C88.0146 128.639 88.4148 129.002 88.7786 129.294C88.7786 129.294 88.1965 129.657 87.7237 130.603C87.2507 131.513 86.4503 133.259 86.9231 134.387C87.1414 134.896 100.056 134.205 100.056 134.205L113.626 134.278C113.626 134.278 113.044 131.586 109.915 130.822C107.114 130.13 106.496 130.094 105.113 129.948C104.24 129.876 103.512 129.512 103.149 128.784C102.603 127.729 102.021 127.293 100.857 126.856C99.0741 126.201 91.3981 126.492 89.5062 126.82Z" fill="#92BDF9"/>
<path d="M86.9229 134.459C86.5228 134.059 89.2149 130.021 92.1616 129.73C94.8901 129.439 96.8546 131.803 98.6373 132.203C99.8014 132.458 101.62 132.458 103.185 132.458C103.876 132.458 112.607 132.422 112.607 132.422C112.607 132.422 114.681 133.913 113.771 134.75C113.225 135.187 87.2867 134.823 86.9229 134.459Z" fill="#4879BB"/>
<path d="M86.3326 83.8997L100.982 83.0272C100.982 83.0272 99.8192 63.0697 98.9831 59.7254C98.6922 58.5984 78.1897 57.8351 77.7534 58.2713C75.8995 60.0889 67.3931 78.5195 67.3931 78.5195L80.8433 83.7179L86.1144 72.3759L86.3326 83.8997Z" fill="#FFB6A9"/>
<path d="M70.1194 130.649C70.8828 130.758 71.5735 130.285 71.6825 129.558C71.7916 128.831 71.2827 128.14 70.5192 128.031C69.7558 127.922 69.0652 128.395 68.9561 129.122C68.8471 129.849 69.356 130.54 70.1194 130.649Z" fill="#CAE3FB"/>
<path d="M100.074 130.903C99.3103 131.012 98.6196 130.539 98.5104 129.812C98.4014 129.085 98.9105 128.395 99.6375 128.286C100.401 128.177 101.092 128.649 101.201 129.376C101.346 130.103 100.837 130.794 100.074 130.903Z" fill="#CAE3FB"/>
<mask id="mask1_139_2606" style="mask-type:alpha" maskUnits="userSpaceOnUse" x="67" y="58" width="34" height="26">
<path d="M86.3326 83.8997L100.982 83.0272C100.982 83.0272 99.8192 63.0697 98.9831 59.7254C98.6922 58.5984 78.1897 57.8351 77.7534 58.2713C75.8995 60.0889 67.3931 78.5195 67.3931 78.5195L80.8433 83.7179L86.1144 72.3759L86.3326 83.8997Z" fill="#FFB6A9"/>
</mask>
<g mask="url(#mask1_139_2606)">
<path d="M170.7 18.6975C169.791 15.3895 168.555 12.2632 167.065 9.64591C165.574 7.06477 163.756 4.99282 161.757 3.8659C159.721 2.73898 157.431 2.59346 155.105 3.90216C152.815 5.1746 150.452 7.79188 148.125 12.0815V12.1178V12.1542C145.907 17.716 141.8 25.3501 136.674 30.3303C134.384 32.5842 131.912 34.22 129.331 34.947C129.476 33.602 129.549 32.1842 129.585 30.6575C129.695 26.3316 128.059 23.4234 125.732 21.7511C123.442 20.079 120.534 19.6791 118.134 20.2244C115.735 20.7697 113.736 22.3329 113.481 24.7321C113.227 27.1313 114.754 30.0758 118.825 33.3112C121.988 35.8558 125.187 36.6557 128.24 36.1831C127.731 40.4726 126.823 43.817 125.732 46.2163C123.842 45.6347 122.169 45.6347 120.861 45.9982C119.661 46.3617 118.716 47.0524 118.353 47.9613C117.989 48.9063 118.244 49.997 119.116 50.9057C119.552 51.3783 120.061 51.6691 120.643 51.8145C121.224 51.9236 121.806 51.8509 122.388 51.6327C123.551 51.1601 124.678 50.0332 125.696 48.3611C125.877 48.0702 126.059 47.7431 126.241 47.4158C127.55 47.9249 129.04 48.7245 130.567 49.9606C132.53 51.5237 133.621 52.8688 134.129 53.9229C134.638 54.9772 134.602 55.777 134.348 56.3949C134.093 57.0493 133.511 57.5219 132.894 57.8853C132.276 58.2488 131.585 58.4306 131.149 58.467C130.93 58.467 130.64 58.467 130.276 58.5034C129.077 58.5396 127.223 58.6488 125.187 59.0486C124.932 58.5396 124.605 58.0671 124.278 57.5582C121.188 53.0142 115.481 48.6883 109.664 45.8891C108.937 45.5256 108.174 45.1984 107.447 44.9076C107.556 40.4362 106.574 35.2016 104.938 30.4031C103.848 27.1677 102.394 24.1141 100.722 21.6057C99.0494 19.1337 97.1228 17.1708 95.0507 16.1893C92.9423 15.1714 90.6884 15.2078 88.4347 16.6619C86.2171 18.116 84.036 20.8788 82.0002 25.3137V25.3501V25.3864C80.1826 31.0574 76.5838 38.9822 71.7853 44.2896C69.6404 46.6526 67.2776 48.5065 64.7692 49.3789C64.8056 48.0339 64.8056 46.6162 64.7328 45.0893C64.551 40.7998 62.7335 38.0006 60.2979 36.4739C57.8986 34.9834 54.9541 34.7289 52.5912 35.456C50.2646 36.1467 48.3379 37.8552 48.2653 40.2545C48.1925 42.6175 49.9376 45.4529 54.1907 48.4338C57.5351 50.7603 60.7705 51.3419 63.7877 50.6513C63.5696 54.9772 62.8789 58.3579 61.9701 60.8299C60.0435 60.3937 58.3712 60.5027 57.0989 60.939C55.9356 61.3388 55.0632 62.1022 54.7359 63.0473C54.4089 64.029 54.7359 65.0468 55.6812 65.9191C56.1538 66.3555 56.699 66.6463 57.2807 66.719C57.8623 66.7916 58.444 66.6826 59.0256 66.4282C60.1161 65.8829 61.1703 64.6833 62.0792 62.9383C62.2609 62.6475 62.4063 62.3203 62.5517 61.9568C63.9331 62.3567 65.4599 63.0837 67.0594 64.2106C69.1315 65.6647 70.2948 66.9008 70.8764 67.9186C71.458 68.9365 71.458 69.7362 71.2399 70.3542C71.0218 70.9722 70.5128 71.5175 69.8949 71.9173C69.2769 72.3172 68.6225 72.5354 68.1863 72.608C67.9682 72.6444 67.6774 72.6808 67.314 72.7172C66.1143 72.8625 64.1876 73.0806 62.1519 73.6622C59.4981 74.4257 56.5172 75.7708 54.3725 78.3881C54.0453 78.788 53.8272 79.2242 53.6818 79.6968C51.5007 78.7152 48.9923 78.6788 47.3564 80.3875C45.6843 82.096 45.0299 85.3314 46.1932 90.4206C47.0656 94.3831 49.065 97.0004 51.7551 98.5273C48.7015 101.581 45.9024 103.617 43.5394 104.816C42.4125 103.18 41.1038 102.126 39.8679 101.617C38.7046 101.145 37.5413 101.108 36.6689 101.581C35.76 102.09 35.3238 103.071 35.433 104.344C35.4693 104.998 35.6874 105.543 36.0509 106.016C36.4507 106.452 36.9233 106.779 37.5413 106.961C38.741 107.324 40.3041 107.143 42.1581 106.452C42.4853 106.307 42.8125 106.161 43.1759 106.016C43.9394 107.252 44.5574 108.779 44.9935 110.705C45.5389 113.141 45.5751 114.85 45.3207 116.013C45.0663 117.14 44.521 117.721 43.9394 118.048C43.3214 118.376 42.5943 118.412 41.8673 118.303C41.1766 118.194 40.5222 117.939 40.1587 117.685C39.9769 117.576 39.7225 117.394 39.4317 117.176C38.4138 116.449 36.8507 115.322 34.9604 114.377C32.4884 113.104 29.362 112.087 26.0176 112.596C24.1637 112.85 22.964 114.34 22.3825 116.194C21.8007 118.048 21.8371 120.339 22.5642 122.411C23.2912 124.519 24.7089 126.446 26.9628 127.5C29.1804 128.591 32.1612 128.772 35.9418 127.5C37.9776 126.846 39.6497 126.482 41.0312 126.337C41.0312 126.846 41.0676 127.355 41.1402 127.827C41.322 128.809 41.6492 129.608 42.0854 130.263C42.4853 130.881 42.9942 131.39 43.4668 131.608C44.8482 132.262 46.0841 131.971 46.8476 131.135C47.6109 130.336 47.9017 129.1 47.4655 127.973C47.0294 126.809 45.9024 125.864 43.9756 125.501C43.4304 125.392 42.8125 125.355 42.1217 125.355C42.3399 124.265 42.9215 123.101 44.012 121.902C45.7207 120.048 47.5746 118.776 50.083 118.412C50.1192 118.376 50.192 118.376 50.2283 118.376C50.0466 122.156 51.2463 125.937 52.0459 128.445C52.3368 129.354 52.882 129.972 53.5727 130.336C54.2633 130.699 55.0995 130.772 55.9356 130.699C57.6079 130.554 59.4981 129.645 60.9886 128.445C62.479 127.246 63.715 125.683 63.8968 124.047C64.0058 123.247 63.8241 122.411 63.3151 121.647C62.8063 120.884 61.9701 120.23 60.7705 119.721C56.8807 118.048 53.8271 117.321 51.2825 117.394C51.3553 116.921 51.4279 116.485 51.537 116.013C52.0459 113.904 53.1728 111.941 55.3176 110.378C57.4625 108.779 60.6251 107.615 65.2782 107.106C69.9676 106.634 72.5123 107.143 73.821 108.124C75.0569 109.069 75.3114 110.524 74.9843 112.377C74.7297 113.795 74.1845 115.322 73.6756 116.812C73.5302 117.285 73.3484 117.758 73.203 118.23C72.8758 119.175 72.5849 120.121 72.4759 120.957C72.3305 121.793 72.3305 122.592 72.6577 123.283C74.1118 126.373 75.9658 128.082 78.0741 128.554C80.1826 129.063 82.4364 128.3 84.5812 126.809C88.9071 123.828 93.1239 117.794 95.8504 111.505C97.2318 108.379 98.2497 105.143 98.686 102.162C99.1221 99.218 99.0131 96.4916 98.1407 94.3467C97.7407 93.4016 97.2318 92.6018 96.5412 91.9475C96.941 91.5112 97.2682 91.0387 97.5591 90.5662C100.504 93.7288 102.43 96.6006 103.557 98.9998C101.885 100.09 100.794 101.326 100.213 102.562C99.7038 103.726 99.5948 104.889 100.067 105.761C100.54 106.67 101.521 107.179 102.794 107.106C103.412 107.07 103.993 106.888 104.466 106.525C104.938 106.161 105.266 105.652 105.484 105.071C105.884 103.871 105.775 102.272 105.157 100.418C105.048 100.09 104.902 99.7632 104.757 99.3996C106.029 98.709 107.592 98.1274 109.519 97.7639C111.991 97.2913 113.663 97.3276 114.826 97.6185C115.953 97.9093 116.535 98.4545 116.826 99.0726C117.117 99.6906 117.153 100.418 117.008 101.145C116.862 101.872 116.571 102.49 116.317 102.853C116.171 103.035 115.99 103.253 115.771 103.544C115.045 104.525 113.845 106.052 112.827 107.906C111.518 110.342 110.391 113.432 110.755 116.776C110.973 118.63 112.427 119.902 114.245 120.557C116.062 121.175 118.353 121.247 120.461 120.593C122.569 119.939 124.532 118.557 125.696 116.376C126.823 114.195 127.113 111.214 125.987 107.397C125.405 105.471 125.078 103.907 124.896 102.635C125.223 102.599 125.55 102.562 125.841 102.526C127.041 102.344 128.131 101.944 128.967 101.508C129.367 101.29 129.731 101.036 129.985 100.745C130.24 100.49 130.458 100.127 130.421 99.7268C130.421 99.3634 130.167 98.9998 129.913 98.709C129.622 98.3819 129.258 98.0911 128.858 97.8003C128.059 97.2549 126.968 96.7824 125.95 96.9641C125.441 97.0733 124.932 97.3276 124.569 97.8003C124.205 98.2365 123.951 98.8908 123.842 99.7268C123.769 100.272 123.769 100.89 123.805 101.654C122.206 101.545 120.679 100.926 119.807 99.5088C118.425 97.3276 117.407 95.3283 117.226 92.7836V92.7472C121.006 93.0744 124.86 92.0203 127.404 91.2932C128.313 91.0387 128.931 90.5298 129.331 89.8391C129.695 89.1847 129.84 88.3486 129.767 87.5126C129.658 85.8403 128.858 83.9136 127.695 82.3868C126.568 80.8601 125.005 79.5877 123.405 79.3333C122.569 79.2242 121.733 79.3333 120.97 79.8421C120.206 80.3147 119.516 81.1508 118.97 82.3141C117.08 86.1675 116.317 89.1847 116.244 91.693C115.808 91.6203 115.335 91.5112 114.899 91.4022C112.827 90.8206 110.9 89.621 109.41 87.4398C107.919 85.2587 106.829 82.0234 106.502 77.3703C106.175 72.6808 106.829 70.2452 107.883 69.0456C108.901 67.9187 110.391 67.8096 112.282 68.2458C113.554 68.5365 114.899 69.0819 116.244 69.5908C116.535 69.7362 116.862 69.8452 117.153 69.9544C117.916 71.2267 119.08 72.39 120.425 73.2624C122.315 74.4257 124.641 75.0438 127.041 74.4985C129.44 73.9167 131.912 72.2082 134.057 68.8638C135.22 67.0462 136.311 65.7375 137.292 64.756C137.583 65.1922 137.947 65.5557 138.31 65.8829C139.037 66.5372 139.837 66.937 140.564 67.1916C141.255 67.4096 141.982 67.4824 142.49 67.3734C143.944 67.0462 144.708 66.0283 144.817 64.9014C144.926 63.8108 144.381 62.6475 143.327 62.0295C142.236 61.3752 140.746 61.3388 139.037 62.2477C138.528 62.5021 138.019 62.8657 137.474 63.3019C137.001 62.284 136.71 61.0116 136.82 59.4121C137.001 56.8675 137.656 54.7227 139.4 52.8688L139.51 52.7598C141.727 55.8133 145.035 58.0308 147.216 59.4849C147.98 59.9939 148.779 60.1393 149.579 59.9939C150.343 59.8121 151.033 59.3758 151.651 58.7942C152.851 57.5945 153.76 55.7406 154.196 53.8503C154.632 51.9963 154.596 49.997 153.723 48.6156C153.287 47.8885 152.633 47.3432 151.76 47.0888C150.888 46.8343 149.834 46.8706 148.561 47.1978C144.49 48.2883 141.618 49.6334 139.691 51.2693C139.473 50.8693 139.219 50.4695 139.037 50.0332C138.128 48.0703 137.801 45.8164 138.492 43.2718C139.182 40.6908 140.927 37.7826 144.235 34.5108C147.58 31.2028 149.906 30.0031 151.542 29.9668C153.105 29.9305 154.196 30.912 155.105 32.5479C155.795 33.7839 156.341 35.3106 156.85 36.8011C157.031 37.2736 157.177 37.7462 157.359 38.2188C157.686 39.1639 158.049 40.0728 158.485 40.7998C158.885 41.5268 159.431 42.1811 160.085 42.5083C163.139 44.0352 165.647 44.2169 167.61 43.2718C169.573 42.3267 170.845 40.3636 171.463 37.6734C172.954 32.6932 172.481 25.3137 170.7 18.6975ZM125.005 47.9975C124.06 49.597 123.042 50.5059 122.169 50.8693C121.733 51.0149 121.333 51.0512 120.97 50.9785C120.606 50.8693 120.243 50.6876 119.916 50.3241C119.261 49.597 119.152 48.9427 119.37 48.3975C119.589 47.8521 120.243 47.3069 121.261 47.0161C122.315 46.7252 123.769 46.7252 125.441 47.1978C125.296 47.4887 125.15 47.7431 125.005 47.9975ZM61.2794 62.6113C60.4433 64.2834 59.4981 65.2649 58.662 65.6647C58.2258 65.8829 57.8623 65.9193 57.4988 65.8829C57.1353 65.8103 56.7717 65.6647 56.4082 65.3013C55.6812 64.6469 55.5358 63.9562 55.7176 63.4109C55.8628 62.8657 56.4445 62.284 57.4625 61.9205C58.5166 61.557 59.9345 61.448 61.643 61.8114C61.534 62.1023 61.3884 62.3567 61.2794 62.6113ZM41.8309 105.689C40.086 106.343 38.741 106.452 37.8322 106.161C37.3959 106.016 37.0687 105.798 36.8143 105.507C36.5961 105.216 36.4144 104.853 36.3781 104.344C36.3053 103.362 36.6325 102.781 37.1415 102.49C37.6868 102.235 38.5228 102.199 39.5043 102.599C40.5222 103.035 41.6492 103.907 42.6671 105.361C42.3763 105.471 42.1217 105.616 41.8309 105.689ZM119.879 82.7503C120.388 81.6962 120.97 81.0417 121.552 80.6783C122.133 80.3147 122.715 80.2057 123.333 80.3147C124.569 80.4965 125.914 81.5508 127.004 83.0049C128.059 84.4589 128.822 86.1675 128.895 87.6216C128.931 88.3486 128.822 88.9667 128.568 89.4392C128.277 89.8754 127.841 90.2389 127.186 90.4206C124.569 91.1478 120.825 92.1657 117.262 91.8385C117.298 89.4755 118.025 86.6038 119.879 82.7503ZM139.546 63.1201C141.073 62.3203 142.2 62.4295 142.89 62.8657C143.617 63.3019 144.017 64.1016 143.945 64.8287C143.872 65.5195 143.436 66.2101 142.345 66.4646C142.054 66.5009 141.545 66.5009 140.927 66.2827C140.309 66.0647 139.619 65.7011 139.001 65.1559C138.674 64.8651 138.346 64.5015 138.056 64.1016C138.601 63.6654 139.11 63.3019 139.546 63.1201ZM148.925 48.0703C150.052 47.7431 150.924 47.7795 151.579 47.9613C152.197 48.143 152.669 48.5429 152.996 49.0518C153.651 50.1424 153.76 51.8509 153.36 53.5958C152.96 55.377 152.087 57.0493 151.07 58.0672C150.524 58.5761 150.015 58.9032 149.47 59.0123C148.925 59.1214 148.38 59.0487 147.798 58.6488C145.544 57.1583 142.345 54.9772 140.273 52.069C142.054 50.5423 144.781 49.1972 148.925 48.0703ZM119.552 32.6932C115.59 29.4942 114.39 26.8405 114.572 24.9502C114.754 23.1326 116.317 21.7875 118.498 21.2786C120.643 20.806 123.296 21.1695 125.332 22.66C127.368 24.1504 128.895 26.7315 128.786 30.7666C128.713 32.3661 128.64 33.8929 128.495 35.3106C125.623 35.8195 122.642 35.1652 119.552 32.6932ZM54.7723 47.7067C50.5919 44.7985 49.2104 42.2175 49.2832 40.3272C49.3558 38.4732 50.8099 37.0192 52.9548 36.4011C55.0632 35.7468 57.7169 35.9649 59.8617 37.31C61.9701 38.655 63.6787 41.1634 63.8241 45.1985C63.8968 46.798 63.8968 48.3247 63.8604 49.7425C61.0614 50.4332 58.0077 49.997 54.7723 47.7067ZM55.0995 79.1152C57.0625 76.7159 59.8253 75.4435 62.4063 74.7165C64.3694 74.1713 66.1507 73.9531 67.3866 73.8077C67.7865 73.7713 68.1136 73.735 68.3681 73.6987C68.9497 73.6259 69.7132 73.3352 70.4402 72.8626C71.1672 72.39 71.8579 71.7357 72.1851 70.8268C72.5123 69.8816 72.4396 68.7911 71.7489 67.5914C71.0582 66.3918 69.7496 65.0468 67.641 63.5927C66.0053 62.4657 64.4058 61.7024 62.9515 61.2298C63.9332 58.5761 64.6238 55.0136 64.8056 50.5423C67.6774 49.6334 70.2584 47.6341 72.585 45.0893C77.4925 39.6365 81.1278 31.6026 83.0181 25.859C85.0174 21.4967 87.0896 18.9157 89.0889 17.6434C91.052 16.3711 92.9786 16.3711 94.7962 17.2072C96.6503 18.0796 98.4679 19.8972 100.067 22.2965C101.667 24.6957 103.085 27.6767 104.175 30.8757C105.775 35.4924 106.683 40.4726 106.647 44.7259C104.793 44.0352 102.939 43.4898 101.194 43.2354C98.5042 42.7992 95.9958 42.9082 94.0692 43.817C93.0878 44.2896 92.2879 44.9439 91.6699 45.7801C91.4882 45.4165 91.27 45.0893 91.0882 44.7622C89.9977 43.09 88.58 41.7813 86.4715 41.9994C84.4722 42.1811 82.0002 43.7806 78.874 47.3069C75.7113 50.8693 74.0754 54.0683 73.4938 56.8675C72.9122 59.7031 73.4574 62.1386 74.5843 64.2108C74.8751 64.7196 75.166 65.1922 75.4931 65.6647C75.4205 65.7739 75.3478 65.8465 75.2751 65.9556C73.4938 68.1367 72.9485 70.5724 72.9485 73.2624C72.9485 75.1528 73.421 76.6432 74.1481 77.8065C73.094 78.9334 72.0397 80.4239 70.9128 82.4232C69.0587 85.7312 66.914 87.4034 64.842 88.0578C62.8063 88.5667 60.8068 88.2396 59.0619 87.3672C59.0256 86.8581 58.9166 86.3493 58.771 85.8403C58.1168 83.4047 56.4445 81.4416 54.5179 80.2785C54.6269 79.8421 54.8087 79.4423 55.0995 79.1152ZM106.611 45.6347C106.538 46.907 106.393 48.0703 106.175 49.1608C105.629 51.5965 104.575 53.3413 103.012 54.2501C101.485 55.1226 99.3039 55.1953 96.323 53.9593C95.8868 53.7775 95.4505 53.3777 95.0143 52.7234C94.5781 52.069 94.1782 51.2693 93.7784 50.3605C93.5966 49.9606 93.4148 49.5244 93.2331 49.0518C92.8696 48.2883 92.5061 47.4887 92.1425 46.6888C92.6878 45.7437 93.4875 45.0531 94.469 44.5805C96.1413 43.7806 98.4315 43.6352 101.049 44.0716C102.794 44.3623 104.684 44.9076 106.611 45.6347ZM57.8623 86.0947C57.935 86.3129 57.9714 86.4947 58.0077 86.7128C56.6263 85.7676 55.572 84.4952 54.9541 83.223C54.6633 82.5686 54.4815 81.9507 54.4451 81.369C56.0084 82.4232 57.3171 84.0954 57.8623 86.0947ZM47.1384 90.348C46.0115 85.3677 46.7384 82.5323 48.0471 81.1872C49.3195 79.8421 51.3915 79.7695 53.391 80.751C53.4273 80.751 53.4637 80.7874 53.5001 80.7874C53.4273 81.7326 53.6818 82.7141 54.1543 83.6228C54.9177 85.2951 56.3719 86.8945 58.1894 87.9488C58.2258 89.9846 57.4988 92.2384 55.5358 94.6013C54.4815 95.8372 53.4637 96.9641 52.4821 97.982C49.9376 96.6006 48.0108 94.2013 47.1384 90.348ZM43.8302 126.591C45.5025 126.918 46.3022 127.682 46.593 128.482C46.8838 129.281 46.6658 130.154 46.1932 130.663C45.7207 131.172 44.9208 131.426 43.9394 130.953C43.685 130.808 43.285 130.481 42.9215 129.936C42.5217 129.354 42.2307 128.663 42.0854 127.827C42.0127 127.391 41.9763 126.918 42.0127 126.446C42.7033 126.446 43.3214 126.482 43.8302 126.591ZM60.407 120.666C61.4976 121.138 62.1519 121.684 62.5517 122.229C62.9153 122.774 63.0607 123.356 62.9879 123.974C62.8425 125.246 61.861 126.628 60.4433 127.754C59.0619 128.881 57.3171 129.681 55.8992 129.827C55.1722 129.899 54.5543 129.827 54.0816 129.572C53.5727 129.354 53.2092 128.918 52.991 128.264C52.155 125.683 51.0281 122.011 51.2099 118.412C53.5727 118.339 56.5172 118.994 60.407 120.666ZM97.2682 94.7829C98.0679 96.6733 98.1769 99.218 97.7409 102.09C97.3046 104.962 96.323 108.124 94.9781 111.214C92.2879 117.431 88.1802 123.283 84.0723 126.119C82.0366 127.5 80.0735 128.118 78.3286 127.718C76.5838 127.355 74.9115 125.937 73.5665 122.992C73.3848 122.556 73.3484 121.974 73.4574 121.211C73.5665 120.448 73.821 119.575 74.1481 118.63C74.2935 118.194 74.4753 117.758 74.6207 117.285C75.1297 115.758 75.7112 114.122 75.9658 112.632C76.293 110.669 76.1112 108.742 74.4389 107.47C72.8394 106.234 69.9676 105.761 65.2418 106.27C60.4797 106.779 57.1353 108.015 54.8087 109.724C52.4821 111.432 51.2461 113.613 50.6645 115.904C50.5191 116.449 50.4464 116.994 50.3737 117.576C50.2646 117.576 50.1192 117.612 50.0102 117.612C47.211 118.012 45.1389 119.466 43.3577 121.429C42.0854 122.847 41.431 124.265 41.1766 125.573C39.6861 125.683 37.8322 126.082 35.6874 126.809C32.0884 128.045 29.362 127.827 27.3991 126.882C25.4361 125.937 24.1637 124.228 23.5094 122.338C22.855 120.411 22.8187 118.339 23.3276 116.704C23.8366 115.068 24.8543 113.941 26.1994 113.759C29.253 113.323 32.1612 114.232 34.5604 115.431C36.3781 116.34 37.8686 117.394 38.85 118.121C39.1772 118.339 39.4317 118.521 39.6497 118.666C40.1587 118.957 40.9221 119.284 41.7582 119.43C42.5943 119.575 43.5394 119.539 44.412 119.103C45.2843 118.63 45.9751 117.794 46.2659 116.413C46.5568 115.031 46.5204 113.177 45.9387 110.669C45.4661 108.706 44.8119 107.07 44.0484 105.761C46.5204 104.489 49.465 102.308 52.6276 99.1453C55.354 100.418 58.6258 100.672 62.0428 100.345C68.041 99.7632 74.6207 97.2913 79.6736 94.7831C81.4549 96.2007 84.5449 96.7824 89.2343 95.9099C92.1061 95.401 94.2873 94.2741 95.8868 92.7109C96.4686 93.2926 96.941 93.9832 97.2682 94.7829ZM80.6553 94.3104C81.3822 93.9468 82.073 93.5471 82.7273 93.1834C87.1622 91.3294 90.3976 90.8206 92.7605 91.2205C93.6694 91.3659 94.469 91.6567 95.1235 92.0929C93.6694 93.4743 91.6699 94.4559 89.0525 94.9647C84.7993 95.7646 82.1456 95.2919 80.6553 94.3104ZM95.8141 91.3659C95.0143 90.8206 94.0692 90.4206 92.9423 90.2389C90.3612 89.8028 86.8715 90.3843 82.3638 92.2747H82.3274H82.291C81.5276 92.7109 80.7279 93.1472 79.8554 93.5834C78.6558 92.2384 78.6922 90.2389 79.71 88.3123C80.7279 86.3493 82.7273 84.6043 85.1992 84.0228C87.6348 83.4411 90.6158 83.9864 93.5966 86.6764C94.7962 87.767 95.8868 88.8213 96.8682 89.8391C96.5412 90.4206 96.214 90.9297 95.8141 91.3659ZM97.3409 88.9665C96.3958 87.985 95.3779 87.0036 94.251 85.9857C91.052 83.1139 87.7802 82.4595 84.9812 83.1139C82.2547 83.7682 80.0372 85.6949 78.874 87.876C77.7834 89.9482 77.6017 92.3111 78.983 94.0559C74.0027 96.4916 67.7138 98.8181 61.9701 99.3634C58.7712 99.6542 55.8266 99.436 53.3546 98.3819C54.2997 97.4003 55.245 96.3462 56.2264 95.1829C58.1894 92.8563 59.0256 90.5662 59.0983 88.4213C60.9159 89.2211 62.9879 89.5119 65.0601 88.7485C67.423 88.0214 69.7496 86.1675 71.6763 82.6777C72.7304 80.8238 73.7119 79.406 74.6571 78.3882C74.9843 78.788 75.3478 79.1515 75.7476 79.4423C76.511 80.0239 77.3109 80.3875 78.0741 80.5693C78.8376 80.7874 79.5283 80.7874 80.0372 80.642C81.4549 80.2421 82.1456 79.1515 82.182 78.0246C82.2184 76.934 81.6004 75.807 80.5097 75.2617C79.4192 74.6802 77.9288 74.7529 76.2566 75.7708C75.7476 76.0979 75.2751 76.4614 74.7661 76.934C74.2209 75.9889 73.8573 74.7165 73.8573 73.117C73.8573 70.6087 74.3663 68.3912 75.9658 66.4282L76.0748 66.3191C78.5104 69.1909 81.9276 71.1903 84.2178 72.499C85.0174 72.9716 85.8535 73.0806 86.617 72.8626C87.3804 72.6808 88.071 72.1718 88.6165 71.5539C89.7434 70.2816 90.543 68.3548 90.8339 66.4646C91.1246 64.5742 90.9429 62.6111 89.9977 61.2662C89.4889 60.5755 88.8344 60.1029 87.9256 59.8847C87.0532 59.6667 85.9991 59.7393 84.763 60.1756C80.7643 61.557 78.0015 63.1201 76.1839 64.865C75.893 64.4652 75.6386 64.0652 75.4205 63.6654C74.3663 61.7751 73.8937 59.5575 74.4027 56.9765C74.9115 54.3592 76.4747 51.3419 79.5647 47.8521C82.6909 44.326 84.9084 42.9809 86.5443 42.8355C88.071 42.6901 89.2343 43.6352 90.2522 45.1984C90.543 45.671 90.7976 46.1436 91.052 46.6526C90.7248 47.3432 90.5066 48.1429 90.3612 49.0518C89.9977 51.6691 90.5794 55.1953 92.2879 59.7757V59.8121V59.8483C95.0507 65.1559 98.1769 73.2624 98.6133 80.3875C98.8314 83.5865 98.4678 86.531 97.3409 88.9665ZM75.3478 77.8065C75.8566 77.3339 76.3292 76.934 76.7654 76.6795C78.2196 75.7708 79.3466 75.807 80.0735 76.207C80.8369 76.6068 81.2368 77.3703 81.2368 78.0973C81.2368 78.788 80.8005 79.5151 79.7464 79.8421C79.4556 79.9149 78.9466 79.9512 78.2923 79.7695C77.7107 79.6241 77.02 79.2969 76.3656 78.788C76.0022 78.5336 75.6749 78.2064 75.3478 77.8065ZM76.7292 65.6647C78.4014 64.029 81.0187 62.5021 85.0174 61.1208C86.1443 60.7572 87.0169 60.6845 87.6712 60.83C88.3256 60.9754 88.7981 61.3388 89.1617 61.8478C89.8887 62.8657 90.1068 64.5742 89.8159 66.3555C89.5252 68.1367 88.7981 69.8816 87.853 70.9722C87.3804 71.5175 86.8715 71.8811 86.3261 71.9901C85.8899 72.1355 85.3083 72.0991 84.6904 71.7357C82.3274 70.3906 79.0193 68.4275 76.7292 65.6647ZM104.575 104.816C104.43 105.253 104.175 105.58 103.884 105.798C103.594 106.016 103.194 106.161 102.721 106.198C101.739 106.234 101.158 105.87 100.903 105.361C100.613 104.78 100.613 103.98 101.049 102.999C101.521 101.981 102.43 100.89 103.921 99.945C104.03 100.236 104.139 100.527 104.248 100.781C104.829 102.562 104.902 103.907 104.575 104.816ZM124.823 99.9086C124.932 99.1816 125.114 98.709 125.332 98.4181C125.55 98.1274 125.805 97.982 126.132 97.9457C126.786 97.8366 127.586 98.1274 128.313 98.6363C128.677 98.8908 128.968 99.1453 129.185 99.3998C129.404 99.6542 129.476 99.836 129.476 99.8723C129.476 99.8723 129.476 99.9813 129.295 100.163C129.149 100.345 128.858 100.527 128.531 100.745C127.768 101.145 126.786 101.472 125.696 101.654C125.405 101.69 125.078 101.726 124.787 101.726C124.714 100.999 124.751 100.381 124.823 99.9086ZM112.609 67.1552C110.682 66.719 108.683 66.719 107.301 68.2821C105.993 69.809 105.375 72.6082 105.702 77.3339C106.029 82.0961 107.12 85.5133 108.756 87.8761C110.391 90.2754 112.5 91.5839 114.79 92.2384C115.335 92.4202 115.881 92.5292 116.426 92.602V92.8199C116.644 95.5828 117.771 97.7639 119.152 99.9814C120.279 101.799 122.206 102.526 124.06 102.599C124.242 103.944 124.605 105.616 125.187 107.615C126.241 111.287 125.95 113.977 124.932 115.904C123.914 117.83 122.17 119.066 120.243 119.648C118.316 120.23 116.208 120.193 114.608 119.612C113.009 119.03 111.918 117.976 111.773 116.631C111.409 113.577 112.463 110.669 113.736 108.342C114.717 106.561 115.808 105.143 116.571 104.162C116.789 103.871 117.008 103.617 117.153 103.398C117.517 102.926 117.844 102.162 118.025 101.326C118.171 100.49 118.171 99.5089 117.771 98.6363C117.335 97.7275 116.498 97.0369 115.154 96.6733C113.809 96.3098 111.955 96.3098 109.41 96.7824C107.447 97.1823 105.775 97.7639 104.43 98.4909C103.23 95.9464 101.158 92.929 98.1043 89.6573C99.4494 86.9672 99.8492 83.6955 99.6312 80.2785C99.1585 72.9716 95.9958 64.7196 93.1967 59.3758C91.4882 54.9045 91.0156 51.5601 91.3428 49.1608C91.4155 48.6519 91.5245 48.2157 91.6699 47.7795C91.8881 48.2884 92.1061 48.7974 92.3243 49.3062C92.5061 49.7788 92.7242 50.2514 92.906 50.6876C93.3057 51.5965 93.742 52.4688 94.2147 53.1959C94.6872 53.9231 95.2325 54.5046 95.9231 54.7954C99.0858 56.1405 101.594 56.1405 103.484 55.05C105.338 53.9957 106.502 51.9236 107.083 49.379C107.338 48.3611 107.483 47.2342 107.556 46.0345C108.174 46.289 108.792 46.5798 109.41 46.8706C115.117 49.6334 120.679 53.8867 123.624 58.2126C123.878 58.5761 124.133 58.976 124.351 59.3758C121.842 59.9939 119.152 61.157 117.08 63.3746C115.808 64.756 115.772 66.6826 116.535 68.3185C116.571 68.3913 116.571 68.4275 116.608 68.5003C115.299 67.9913 113.918 67.4461 112.609 67.1552ZM118.462 69.3727C118.28 69.3 118.098 69.2273 117.88 69.1546C117.662 68.8275 117.516 68.4639 117.371 68.1367C116.753 66.5372 116.826 65.0468 117.771 64.029C119.734 61.9205 122.315 60.83 124.787 60.2483C125.478 61.7024 125.841 63.1201 125.768 64.4652C125.696 66.3918 124.714 68.2095 122.533 69.7726C122.169 70.027 121.661 70.0998 120.934 70.027C120.206 69.9544 119.37 69.6998 118.462 69.3727ZM170.736 37.6008C170.009 39.9637 168.846 41.6723 167.247 42.4357C165.647 43.199 163.466 43.1263 160.558 41.7087C160.121 41.4905 159.721 41.0543 159.358 40.4C158.958 39.7456 158.631 38.9095 158.268 37.9644C158.122 37.5281 157.94 37.0919 157.795 36.6193C157.249 35.0924 156.704 33.4929 155.941 32.148C154.959 30.4031 153.614 29.0216 151.542 29.058C149.507 29.1308 146.962 30.5485 143.617 33.8565C140.2 37.201 138.346 40.2545 137.619 43.0536C136.856 45.8528 137.256 48.3247 138.237 50.4695C138.492 50.9785 138.746 51.4874 139.073 51.96L138.819 52.2144C136.892 54.2865 136.165 56.6857 135.983 59.3395C135.874 61.2298 136.238 62.7565 136.856 63.9562C135.729 65.0104 134.566 66.4282 133.33 68.3549C131.258 71.5539 129.004 73.0807 126.895 73.5533C124.751 74.0259 122.678 73.4805 121.006 72.4264C120.17 71.8811 119.407 71.2267 118.825 70.4996C119.516 70.7178 120.206 70.8995 120.825 70.9722C121.624 71.0813 122.424 71.0085 123.078 70.536C125.514 68.8275 126.641 66.7554 126.786 64.5015C126.859 63.0475 126.496 61.5206 125.805 60.0301C127.659 59.6667 129.295 59.5939 130.421 59.5575C130.821 59.5213 131.149 59.5213 131.403 59.4849C131.985 59.4485 132.784 59.1941 133.511 58.7942C134.238 58.3944 135.002 57.74 135.365 56.8675C135.765 55.9587 135.765 54.8682 135.147 53.5958C134.529 52.3598 133.33 50.9421 131.33 49.3062C129.767 48.0703 128.24 47.1978 126.823 46.6526C127.986 44.0716 128.895 40.5818 129.404 36.1103C132.312 35.3833 135.038 33.5657 137.51 31.1665C142.781 26.0772 146.962 18.2977 149.179 12.6995C151.469 8.48261 153.723 6.04699 155.796 4.92006C157.831 3.79314 159.758 3.90216 161.503 4.88381C163.32 5.86521 164.993 7.79188 166.447 10.3003C167.901 12.8085 169.1 15.8985 169.973 19.1339C171.754 25.6772 172.154 32.8386 170.736 37.6008Z" fill="white"/>
</g>
<path d="M73.4506 48.6399C73.4506 48.6399 76.7612 57.2982 77.3433 58.5715C77.9617 59.8448 96.9519 60.3905 98.8435 59.5174C99.4257 59.2263 95.3148 44.5289 92.9865 39.4722C92.9138 39.3266 106.265 28.8493 87.202 32.6328C83.2368 33.3968 72.4684 37.1802 71.2315 38.5627C70.0309 39.9451 73.4506 48.6399 73.4506 48.6399Z" fill="#E1C699"/>
<path d="M77.416 58.2804L74.0327 50.6042" stroke="#424D51" stroke-width="0.363797" stroke-linecap="round" stroke-linejoin="round"/>
<path d="M76.0699 38.7445C76.4701 41 85.1285 38.3807 84.6556 36.0888C83.8552 34.2698 83.4188 33.1784 82.0726 29.8678C81.345 28.1216 79.526 29.0675 78.5075 29.4313C76.5429 30.0861 76.6884 32.378 76.6884 32.378C76.6884 32.378 76.1791 37.5803 76.0699 38.7445Z" fill="#DFA391"/>
<path d="M76.2882 30.8502C76.4701 31.505 77.5615 34.1607 80.0717 34.67C82.0726 35.0702 83.7824 34.088 83.7824 34.088C83.7824 34.088 82.5091 30.6319 82.3636 30.3408C82.2181 30.0134 76.1791 30.3772 76.2882 30.8502Z" fill="#424D51"/>
<path d="M74.7603 29.0676C74.7603 29.0676 77.125 34.379 80.5083 33.4331C83.8917 32.4509 83.4187 29.5769 83.3823 29.3586C83.346 29.1403 81.8544 24.3746 80.6539 23.2104C79.4533 22.0463 76.7248 20.8821 74.5784 22.5192C72.4684 24.1563 72.905 25.9025 73.4871 27.3213C73.8145 28.0853 74.7603 29.0676 74.7603 29.0676Z" fill="#DFA391"/>
<path d="M74.9786 27.7578C74.6875 27.4304 72.2137 26.3754 71.4134 28.2671C70.8677 29.504 71.6316 30.268 72.3592 30.5591C73.2687 30.9229 74.2146 30.7773 74.9422 30.0497C75.7062 29.3221 75.4515 28.7401 75.4515 28.4854C75.4151 28.1216 75.1969 27.9761 74.9786 27.7578Z" fill="#DFA391"/>
<path d="M80.5448 25.2112C80.4719 24.7746 81.2723 22.2281 83.2368 22.8101C84.5465 23.2103 84.6194 24.2653 84.4011 24.9929C84.1099 25.9388 83.3822 26.5573 82.3273 26.6664C81.2723 26.7755 80.9814 26.1935 80.8357 26.0479C80.5448 25.7933 80.5812 25.5386 80.5448 25.2112Z" fill="#DFA391"/>
<path d="M74.5422 25.4294C74.5422 25.4294 77.8891 25.6477 79.6717 23.0283C79.6717 22.9919 80.5811 24.1197 81.1994 23.6468L79.7442 19.8997C79.7442 19.8997 79.1987 18.881 77.8527 19.4631C76.7977 19.8997 72.3594 21.7914 72.3594 21.7914C72.3594 21.7914 71.1224 22.3371 71.7044 23.6104C72.2865 24.8837 73.3052 27.2847 73.5234 27.1756C74.251 26.8482 74.5422 25.4294 74.5422 25.4294Z" fill="#F0D6AC"/>
<path d="M77.8162 29.4312C78.7257 30.5589 79.8534 29.5767 79.8534 29.5767" stroke="#424D51" stroke-width="0.303164" stroke-linecap="round" stroke-linejoin="round"/>
<path d="M78.653 27.5396C78.653 27.5396 79.3078 27.5759 79.417 27.9761C79.4897 28.4127 79.0533 28.5218 78.7621 28.5946" stroke="#424D51" stroke-width="0.303164" stroke-linecap="round" stroke-linejoin="round"/>
<path d="M79.1986 26.5572C79.1986 26.5572 79.2714 25.866 79.8171 25.5385C80.3628 25.2475 80.7628 25.4294 81.0904 25.7204" stroke="#424D51" stroke-width="0.303164" stroke-linecap="round" stroke-linejoin="round"/>
<path d="M79.708 25.7205C79.8171 25.5386 80.0718 25.4658 80.2901 25.575C80.472 25.6841 80.5811 25.9388 80.4356 26.157C80.3266 26.3753 80.0717 26.4481 79.8534 26.3026C79.6715 26.1934 79.599 25.9388 79.708 25.7205Z" stroke="#424D51" stroke-width="0.303164" stroke-linecap="round" stroke-linejoin="round"/>
<path d="M75.5243 28.2307C75.5243 28.2307 75.5969 27.5395 76.1426 27.2121C76.6883 26.8847 77.0885 27.1029 77.416 27.3576" stroke="#424D51" stroke-width="0.303164" stroke-linecap="round" stroke-linejoin="round"/>
<path d="M76.0336 27.4305C76.1427 27.2122 76.3974 27.1394 76.6157 27.2849C76.7976 27.3941 76.9067 27.6487 76.7612 27.867C76.6157 28.0853 76.3974 28.158 76.1791 28.0125C75.9972 27.9034 75.9244 27.6487 76.0336 27.4305Z" stroke="#424D51" stroke-width="0.303164" stroke-linecap="round" stroke-linejoin="round"/>
<path d="M82.0727 24.7747C82.2182 24.702 82.582 24.5201 82.8732 24.5201M82.0727 24.7747C82.1818 24.1563 82.5456 23.8289 82.5456 23.8289M82.0727 24.7747C82.0363 24.9202 82.0363 25.1385 82.0727 25.3568" stroke="#424D51" stroke-width="0.303164" stroke-linecap="round" stroke-linejoin="round"/>
<path d="M74.0327 28.449C73.8508 28.4854 73.487 28.6673 73.3415 28.8855M74.0327 28.449C73.487 28.1579 73.014 28.1943 73.014 28.1943M74.0327 28.449C74.2146 28.5581 74.3601 28.6673 74.5056 28.8492" stroke="#424D51" stroke-width="0.303164" stroke-linecap="round" stroke-linejoin="round"/>
<path d="M114.523 48.0212C114.523 48.8216 105.028 59.6991 102.445 61.4817C102.373 61.5181 102.336 61.5181 102.3 61.5181C100.699 61.1907 99.1711 61.1907 99.1711 61.1907L99.0256 63.228C99.0256 63.228 96.5519 65.2288 95.1331 65.7382C92.1135 66.8296 91.1313 67.2297 91.1676 68.1392C91.204 69.0851 92.3682 69.1579 92.3682 69.1579C92.3682 69.1579 92.1135 69.4125 92.6957 70.0673C93.2049 70.6494 94.0417 70.6858 94.0417 70.6858C94.0417 70.6858 93.9688 71.086 94.4781 71.4862C95.1331 72.0319 96.5155 71.85 96.5155 71.85C96.7702 73.4143 98.7711 73.3415 99.3894 73.1232C100.663 72.6867 101.791 72.0682 102.809 71.3406C102.809 71.3043 102.845 71.3043 102.845 71.3043C105.283 70.2856 126.929 55.4791 127.838 49.6219L114.523 48.0212Z" fill="#DFA391"/>
<path d="M92.2954 69.267C94.6601 69.5944 98.8801 67.1206 98.8801 67.1206" stroke="#424D51" stroke-width="0.363797" stroke-linecap="round" stroke-linejoin="round"/>
<path d="M93.787 70.7951C96.0061 70.977 99.9715 69.0125 99.9715 69.0125" stroke="#424D51" stroke-width="0.363797" stroke-linecap="round" stroke-linejoin="round"/>
<path d="M96.5155 72.1773C98.0071 72.1773 100.844 70.8677 100.844 70.8677" stroke="#424D51" stroke-width="0.363797" stroke-linecap="round" stroke-linejoin="round"/>
<path d="M95.4604 46.0932C95.4604 46.0932 94.0052 44.7472 92.6228 43.1101" stroke="#424D51" stroke-width="0.363797" stroke-linecap="round" stroke-linejoin="round"/>
<path d="M110.958 65.7383C111.104 65.8475 110.267 66.6842 109.539 66.6114C108.775 66.5387 103.209 60.8634 103.464 60.1722C103.719 59.5174 104.41 58.8989 104.41 58.8989C104.41 58.8989 110.849 65.6292 110.958 65.7383Z" fill="#4879BB"/>
<path d="M95.1694 31.7595C90.6583 31.5049 86.7656 32.669 86.693 38.0532C86.5837 45.4383 95.5695 45.984 101.136 46.5661C105.829 47.0754 113.214 47.6939 113.068 47.803C112.413 48.2759 109.467 51.732 107.32 54.0239C105.319 56.1339 102.809 58.1348 104.155 59.8083C105.247 61.1543 110.522 67.6299 112.45 66.3203C116.379 63.7373 126.238 54.6788 128.784 50.8953C130.785 47.9121 130.203 40.2724 119.871 36.7436C108.703 32.9601 98.3708 31.9414 95.1694 31.7595Z" fill="#E1C699"/>
<path d="M116.743 44.1287C116.743 44.1287 113.687 47.1118 113.177 47.803" stroke="#424D51" stroke-width="0.363797" stroke-linecap="round" stroke-linejoin="round"/>
<path d="M95.4604 46.0932C95.4604 46.0932 94.0052 44.7472 92.6228 43.1101" stroke="#424D51" stroke-width="0.363797" stroke-linecap="round" stroke-linejoin="round"/>
<path d="M36.6166 58.0006C39.8585 56.3561 41.1479 52.3994 39.4952 49.122C37.8507 45.88 33.894 44.5906 30.6166 46.2433C27.3746 47.8879 26.0852 51.8446 27.7379 55.122C29.3825 58.364 33.3391 59.6534 36.6166 58.0006Z" fill="#E1C699"/>
<path d="M35.8065 56.4327C38.176 55.2136 39.1192 52.345 37.9001 49.9755C36.681 47.6061 33.8123 46.6629 31.4429 47.882C29.0734 49.1011 28.1302 51.9697 29.3493 54.3392C30.5684 56.7086 33.4289 57.6164 35.8065 56.4327Z" fill="white"/>
</g>
</g>
<defs>
<clipPath id="clip0_139_2606">
<rect width="154.25" height="154.25" fill="white"/>
</clipPath>
</defs>
</svg>
