<svg width="176" height="110" viewBox="0 0 176 110" fill="none" xmlns="http://www.w3.org/2000/svg">
<g opacity="0.999998">
<path d="M165.963 109.58L9.56723 109.459C4.52952 109.455 0.443716 105.574 0.447413 100.786L0.518212 9.0824C0.521905 4.29894 4.60953 0.420298 9.65141 0.424191L166.047 0.544935C171.086 0.548826 175.172 4.4296 175.168 9.21724L175.097 100.927C175.089 105.71 171.002 109.583 165.963 109.58Z" fill="white"/>
<path d="M165.961 109.999L9.56555 109.878C4.28887 109.874 0.0031594 105.796 0.00702408 100.79L0.0778282 9.08066C0.0816961 4.07074 4.37647 0.00331334 9.65037 0.00738503L166.046 0.12813C171.322 0.132203 175.607 4.21042 175.603 9.21617L175.532 100.926C175.528 105.932 171.233 110.003 165.961 109.999ZM9.64556 0.842371C4.85793 0.838675 0.956612 4.53545 0.953102 9.08133L0.882298 100.791C0.878788 105.337 4.77439 109.04 9.56202 109.043L165.957 109.164C170.745 109.168 174.645 105.471 174.649 100.925L174.719 9.21549C174.723 4.6696 170.829 0.966812 166.041 0.963116L9.64556 0.842371Z" fill="#D2D9DF"/>
</g>
<g opacity="0.999997">
<path d="M77.2206 83.7226L74.1914 83.7202L74.1805 97.8908L77.2097 97.8931L77.2206 83.7226Z" fill="#E9E9EA"/>
<path d="M108.618 83.7468L105.589 83.7445L105.578 97.915L108.607 97.9174L108.618 83.7468Z" fill="#E9E9EA"/>
<path d="M83.3676 83.7273L78.585 83.7236L78.574 97.8942L83.3566 97.8979L83.3676 83.7273Z" fill="#E9E9EA"/>
<path d="M87.1364 83.7302L84.7422 83.7284L84.7312 97.8989L87.1254 97.9007L87.1364 83.7302Z" fill="#E9E9EA"/>
<path d="M111.825 83.7493L109.43 83.7474L109.419 97.918L111.814 97.9198L111.825 83.7493Z" fill="#E9E9EA"/>
<path d="M116.001 83.7525L113.607 83.7507L113.596 97.9212L115.99 97.9231L116.001 83.7525Z" fill="#E9E9EA"/>
<path d="M88.1021 97.9015L89.2978 97.9024L89.3087 83.7319L88.113 83.731L88.1021 97.9015Z" fill="#E9E9EA"/>
<path d="M116.964 97.9238L118.162 97.9247L118.173 83.7542L116.975 83.7533L116.964 97.9238Z" fill="#E9E9EA"/>
<path d="M98.6514 97.9096L99.8499 97.9106L99.8609 83.74L98.6624 83.7391L98.6514 97.9096Z" fill="#E9E9EA"/>
<path d="M96.4317 97.908L97.6273 97.9089L97.6383 83.7383L96.4426 83.7374L96.4317 97.908Z" fill="#E9E9EA"/>
<path d="M95.5373 83.7367L90.1025 83.7325L90.0916 97.9031L95.5264 97.9072L95.5373 83.7367Z" fill="#E9E9EA"/>
<path d="M103.991 83.7432L101.002 83.7409L100.991 97.9115L103.98 97.9138L103.991 83.7432Z" fill="#E9E9EA"/>
<path d="M122.155 83.7573L119.126 83.7549L119.115 97.9255L122.144 97.9278L122.155 83.7573Z" fill="#E9E9EA"/>
<path d="M153.552 83.7815L150.523 83.7792L150.512 97.9497L153.541 97.9521L153.552 83.7815Z" fill="#E9E9EA"/>
<path d="M122.895 97.9284L124.056 97.9293L124.067 83.7587L122.906 83.7578L122.895 97.9284Z" fill="#E9E9EA"/>
<path d="M125.083 97.9301L126.244 97.931L126.255 83.7604L125.094 83.7595L125.083 97.9301Z" fill="#E9E9EA"/>
<path d="M127.138 97.9316L128.303 97.9325L128.314 83.762L127.149 83.7611L127.138 97.9316Z" fill="#E9E9EA"/>
<path d="M132.069 83.7649L129.675 83.7631L129.664 97.9336L132.058 97.9354L132.069 83.7649Z" fill="#E9E9EA"/>
<path d="M156.762 83.784L154.368 83.7821L154.357 97.9527L156.751 97.9545L156.762 83.784Z" fill="#E9E9EA"/>
<path d="M160.938 83.7872L158.544 83.7854L158.533 97.9559L160.927 97.9578L160.938 83.7872Z" fill="#E9E9EA"/>
<path d="M133.036 97.9362L134.232 97.9371L134.243 83.7666L133.047 83.7657L133.036 97.9362Z" fill="#E9E9EA"/>
<path d="M161.903 97.9585L163.101 97.9594L163.112 83.7889L161.914 83.7879L161.903 97.9585Z" fill="#E9E9EA"/>
<path d="M143.59 97.9443L144.789 97.9453L144.8 83.7747L143.601 83.7738L143.59 97.9443Z" fill="#E9E9EA"/>
<path d="M141.363 97.9426L142.559 97.9436L142.57 83.773L141.374 83.7721L141.363 97.9426Z" fill="#E9E9EA"/>
<path d="M140.472 83.7714L135.037 83.7672L135.026 97.9377L140.461 97.9419L140.472 83.7714Z" fill="#E9E9EA"/>
<path d="M148.929 83.7779L145.937 83.7756L145.926 97.9461L148.918 97.9485L148.929 83.7779Z" fill="#E9E9EA"/>
</g>
<path d="M60.9285 99.0854L13.0659 99.0485C10.6955 99.0466 8.77501 97.3855 8.77659 95.3417L8.82319 34.9811C8.82477 32.9374 10.7478 31.2806 13.1182 31.2824L60.985 31.3194C63.3554 31.3212 65.2759 32.981 65.2743 35.0247L65.2277 95.3881C65.2219 97.4347 63.2989 99.0873 60.9285 99.0854Z" fill="#25252D"/>
<path d="M46.5347 56.3056C46.5307 61.5019 42.3124 65.7151 37.1147 65.7111C31.9171 65.707 27.7053 61.4873 27.7093 56.2911C27.7133 51.0934 31.9316 46.8802 37.1293 46.8842C42.327 46.8728 46.5388 51.0911 46.5347 56.3056Z" stroke="#00D995" stroke-width="1.68069" stroke-miterlimit="10" stroke-linecap="square"/>
<path d="M50.9103 84.5149L50.9171 75.6923C50.9193 72.8216 48.5942 70.4929 45.7235 70.4907L27.7278 70.4768C24.8571 70.4745 22.5284 72.7996 22.5261 75.6704L22.5216 81.6082C22.5204 83.1656 23.7725 84.4183 25.3285 84.4195L37.961 84.4292" stroke="#00D995" stroke-width="1.68069" stroke-miterlimit="10" stroke-linecap="square"/>
<path d="M138.41 68.3868C138.411 67.1305 139.43 66.1157 140.684 66.1167L147.114 66.1216C148.366 66.1226 149.383 67.139 149.382 68.3953C149.381 69.6488 148.363 70.6636 147.111 70.6626L140.68 70.6577C139.427 70.6567 138.409 69.6404 138.41 68.3868Z" fill="#E9E9EA"/>
<path d="M105.614 68.3615C105.614 67.1395 106.603 66.1525 107.822 66.1534L132.477 66.1725C133.696 66.1734 134.683 67.162 134.682 68.384C134.681 69.6032 133.693 70.5902 132.474 70.5893L107.819 70.5703C106.6 70.5693 105.613 69.5808 105.614 68.3615Z" fill="#E9E9EA"/>
<path d="M75.6673 68.3384C75.6682 67.1273 76.6492 66.1492 77.8575 66.1501L100.468 66.1676C101.675 66.1685 102.654 67.1482 102.653 68.3592C102.653 69.5675 101.671 70.5456 100.465 70.5447L77.8541 70.5272C76.6458 70.5263 75.6663 69.5466 75.6673 68.3384Z" fill="#E9E9EA"/>
<path d="M75.8352 52.753C75.8362 51.5346 76.8254 50.5469 78.0438 50.5478L159.676 50.6109C160.895 50.6118 161.882 51.601 161.881 52.8194C161.88 54.0392 160.891 55.0255 159.673 55.0245L78.0403 54.9615C76.822 54.9606 75.8343 53.9727 75.8352 52.753Z" fill="#E9E9EA"/>
<g opacity="0.999997">
<path d="M112.87 37.5684C112.871 36.3343 113.871 35.3349 115.105 35.3359L160.124 35.3706C161.356 35.3716 162.354 36.3725 162.353 37.6066C162.352 38.8394 161.353 39.8374 160.12 39.8364L115.102 39.8017C113.867 39.8007 112.869 38.8012 112.87 37.5684Z" fill="#00D995"/>
</g>
<path d="M75.3056 37.5395C75.3066 36.2965 76.3146 35.2901 77.5562 35.291L103.411 35.311C104.652 35.3119 105.659 36.32 105.658 37.5629C105.657 38.8044 104.649 39.8095 103.407 39.8085L77.5527 39.7886C76.3112 39.7876 75.3047 38.781 75.3056 37.5395Z" fill="#00D995"/>
<path d="M165.747 0.604996L9.83442 0.484624C4.81226 0.480747 0.733098 4.34464 0.729415 9.1161L0.719867 21.4831L174.831 21.6176L174.84 9.25052C174.84 4.47905 170.771 0.608875 165.747 0.604996Z" fill="#25252D"/>
<g opacity="0.999997">
<path d="M55.3163 13.8073L56.8313 13.8085L56.8367 6.72459L55.3218 6.72342L55.3163 13.8073Z" fill="white"/>
<path d="M58.6712 12.424C58.5084 12.5851 58.4282 12.7871 58.4281 13.0298C58.4279 13.2724 58.5077 13.4759 58.6703 13.6373C58.8315 13.7988 59.0334 13.8705 59.2873 13.8707C59.53 13.8709 59.732 13.7995 59.8935 13.6383C60.0563 13.4771 60.1476 13.2738 60.1478 13.0311C60.148 12.7884 60.057 12.5863 59.8944 12.4249C59.7332 12.2621 59.5313 12.1819 59.2886 12.1818C59.0347 12.1816 58.8326 12.2614 58.6712 12.424Z" fill="white"/>
<path d="M61.7617 6.72839L61.7562 13.8123L64.2139 13.8142C64.9223 13.8147 65.5396 13.6735 66.0855 13.3695C66.6328 13.067 67.0469 12.6521 67.3405 12.1165C67.6355 11.5808 67.7875 10.9637 67.788 10.2764C67.7885 9.58764 67.6375 8.97873 67.3433 8.44266C67.0506 7.90658 66.6371 7.49105 66.0903 7.18763C65.5448 6.88421 64.9277 6.73084 64.2193 6.73029L61.7617 6.72839ZM64.2148 12.5475L63.2736 12.5468L63.2771 7.99484L64.2184 7.99557C64.8552 7.99606 65.3516 8.20826 65.7048 8.62375C66.0594 9.03924 66.2399 9.58505 66.2394 10.2738C66.2388 10.9611 66.0574 11.5193 65.7022 11.9328C65.3484 12.3478 64.8517 12.548 64.2148 12.5475Z" fill="white"/>
<path d="M68.865 12.4318C68.7022 12.593 68.6221 12.795 68.6219 13.0376C68.6217 13.2803 68.7015 13.4838 68.8641 13.6452C69.0253 13.8066 69.2272 13.8783 69.4811 13.8785C69.7238 13.8787 69.9259 13.8073 70.0873 13.6462C70.2502 13.485 70.3415 13.2816 70.3417 13.039C70.3419 12.7963 70.2508 12.5942 70.0882 12.4328C69.9271 12.2699 69.7251 12.1898 69.4824 12.1896C69.2285 12.1894 69.0265 12.2692 68.865 12.4318Z" fill="white"/>
<path d="M75.2017 8.38978C74.918 8.93523 74.7856 9.56496 74.7851 10.2832C74.7845 11.0112 74.9159 11.6383 75.1988 12.1842C75.4817 12.7315 75.8742 13.1456 76.4 13.4406C76.9258 13.744 77.5443 13.8862 78.2527 13.8867C78.7984 13.8871 79.2936 13.7865 79.7384 13.5638C80.1735 13.3523 80.53 13.0482 80.8024 12.6543C81.0664 12.2701 81.2267 11.8157 81.2874 11.2996L79.7725 11.2984C79.681 11.7023 79.497 12.0262 79.2134 12.2589C78.9299 12.4915 78.5875 12.602 78.1723 12.6017C77.6056 12.6013 77.1513 12.3891 76.8276 11.9638C76.494 11.5385 76.3332 10.9717 76.3337 10.2844C76.3342 9.59561 76.496 9.02903 76.8302 8.60425C77.1545 8.18087 77.6092 7.9666 78.1759 7.96704C78.5911 7.96736 78.9333 8.08966 79.2165 8.32134C79.4996 8.55441 79.6832 8.87017 79.774 9.27423L81.289 9.2754C81.2291 8.77037 81.0695 8.31295 80.8061 7.91857C80.5343 7.53401 80.1782 7.23074 79.7435 7.00737C79.299 6.79521 78.8039 6.6826 78.2582 6.68218C77.5499 6.68164 76.9311 6.83406 76.4049 7.12823C75.8786 7.43082 75.4855 7.84433 75.2017 8.38978Z" fill="white"/>
<path d="M81.9516 13.8292L83.5184 13.8305L84.0667 12.2822L86.7586 12.2843L87.3045 13.8334L88.9344 13.8346L86.3687 6.74877L84.5465 6.74736L81.9516 13.8292ZM84.473 11.058L85.4051 8.3682L86.3443 11.0594L84.473 11.058Z" fill="white"/>
<path d="M93.0782 6.75256L90.1956 6.75034L90.1901 13.8342L91.7065 13.8354L91.7083 11.4577L92.9932 11.4587L94.1753 13.8373L95.8544 13.8386L94.4608 11.105C94.8354 10.9243 95.1288 10.6608 95.3521 10.3173C95.5642 9.97379 95.6753 9.56708 95.6757 9.11259C95.676 8.64688 95.5655 8.23298 95.354 7.8695C95.1312 7.51444 94.8285 7.24207 94.433 7.04959C94.039 6.85711 93.5832 6.75295 93.0782 6.75256ZM91.7093 10.191L91.711 8.01819L92.9552 8.01915C93.3101 8.01942 93.5934 8.12064 93.805 8.31298C94.0181 8.51514 94.1287 8.77894 94.1284 9.1128C94.1282 9.44665 94.0172 9.70748 93.8038 9.89949C93.5918 10.1027 93.3084 10.1923 92.9535 10.192L91.7093 10.191Z" fill="white"/>
<path d="M97.2905 6.75583L97.2851 13.8397L99.7469 13.8416C100.454 13.8422 101.07 13.701 101.618 13.397C102.164 13.0944 102.58 12.6795 102.874 12.1439C103.167 11.6083 103.319 10.9912 103.32 10.3038C103.32 9.61508 103.169 9.00617 102.876 8.47009C102.584 7.93402 102.169 7.51848 101.623 7.21507C101.075 6.91165 100.459 6.75828 99.7524 6.75773L97.2905 6.75583ZM99.7479 12.5749L98.8038 12.5742L98.8073 8.02228L99.7514 8.02301C100.387 8.0235 100.883 8.2357 101.238 8.65119C101.591 9.06667 101.772 9.61248 101.771 10.3012C101.77 10.9886 101.589 11.5467 101.235 11.9603C100.88 12.3752 100.383 12.5754 99.7479 12.5749Z" fill="white"/>
</g>
</svg>
