<svg width="73" height="73" viewBox="0 0 73 73" fill="none" xmlns="http://www.w3.org/2000/svg">
<g clip-path="url(#clip0_27_1312)">
<path d="M18.0799 51.468C22.6596 51.7362 22.992 44.4822 18.3753 44.4089C13.4314 44.368 13.0489 51.1251 18.0799 51.468Z" fill="#E1C699"/>
<path d="M25.8352 46.1098C24.6717 47.9282 25.5634 50.6576 27.5839 51.4351C33.0416 53.1715 34.9901 44.7814 29.1879 44.2283C27.8124 44.1134 26.5973 45.0446 25.8352 46.1098Z" fill="#E1C699"/>
<path d="M40.1838 51.4817C44.9869 51.1124 44.5518 44.4479 39.8396 44.4215C35.1769 44.4185 35.4981 51.7448 40.1838 51.4817Z" fill="#E1C699"/>
<path d="M49.5912 67.9328C46.2597 67.3364 42.8188 66.9303 39.4255 66.7729C33.9521 66.5934 28.0656 66.87 22.5908 67.1876C18.7989 67.169 13.2356 68.1834 9.84785 66.6222C6.19685 64.3726 5.68215 59.3831 6.16349 55.4433C6.14966 52.4181 6.2171 49.0936 6.29295 46.0496C6.30379 45.2634 6.36495 43.7037 6.39461 42.9163C6.39803 42.846 6.39489 42.7798 6.38862 42.7155C6.45121 41.4828 6.52934 40.2656 6.71569 39.0872C7.31096 34.6679 9.27939 30.422 14.3182 30.4149C20.4085 29.6414 26.5513 28.9609 32.712 29.0114C37.9417 29.0675 43.663 29.1779 48.8847 29.2908C50.9959 29.3711 53.1195 29.2455 55.2085 29.4458C56.333 29.4766 58.0083 30.4071 58.4534 28.8524C59.0761 26.4093 52.276 26.9522 49.9147 26.8382C50.6798 22.7663 50.7658 18.5205 50.1006 14.3961C48.625 4.77992 42.054 -1.59475 32.0099 0.349305C24.9477 1.61012 19.7828 7.24738 19.5145 14.4615C19.1062 18.2279 19.8292 22.0413 19.4893 25.7928C18.9616 25.8119 18.4343 25.8346 17.9076 25.8627C15.4736 26.0399 12.9593 26.0909 10.588 26.6982C3.96365 28.8746 2.48868 37.0274 3.97534 43.0121C3.83947 46.6173 3.62517 51.7571 3.55859 55.3142C2.82545 60.285 3.71785 66.2866 8.28976 69.2259C12.0695 71.3465 16.6793 70.7166 20.8515 71.1217C30.3743 71.3124 39.9471 70.7192 49.4653 70.3396C50.849 70.2807 50.9563 68.1409 49.5912 67.9328ZM22.0225 15.6582C22.2209 9.26087 26.046 4.4671 32.4847 3.62832C45.6429 2.05197 46.9411 16.839 47.3482 26.6916C45.417 26.6068 43.2368 26.5288 41.6041 26.4333C35.114 26.1274 28.5009 25.6492 21.9339 25.7346C22.2152 22.3846 21.7175 18.9991 22.0225 15.6582Z" fill="#E1C699"/>
<path d="M61.0833 65.9318C56.3997 65.9603 55.9941 72.765 60.8691 72.9997C65.7508 73.054 66.2745 65.8696 61.0833 65.9318Z" fill="#E1C699"/>
<path d="M61.5896 37.7344C56.7482 37.2318 52.3651 41.3006 52.3201 46.143C52.2337 47.6738 54.6433 47.8091 54.7217 46.2731C54.7766 45.1864 55.0618 44.1345 55.6304 43.221C57.3744 40.1521 62.1011 39.4807 64.314 42.3701C68.4205 46.8416 62.6109 50.9852 60.059 54.5799C58.8973 56.2392 59.4195 58.5898 59.9241 60.2368C60.2318 61.4862 62.1924 61.3662 62.3341 60.0714C62.5818 59.1009 62.3274 57.365 63.1381 56.7623C65.7367 54.3854 68.6284 51.8401 69.47 48.2614C70.6561 43.3938 66.3702 38.2585 61.5896 37.7344Z" fill="#E1C699"/>
</g>
<defs>
<clipPath id="clip0_27_1312">
<rect width="73" height="73" fill="white"/>
</clipPath>
</defs>
</svg>
