<svg width="130" height="130" viewBox="0 0 130 130" fill="none" xmlns="http://www.w3.org/2000/svg">
<path d="M65 27.9858C84.9442 27.9858 101.111 44.1528 101.111 64.097C101.111 84.0411 84.9442 100.208 65 100.208C45.0559 100.208 28.8889 84.0411 28.8889 64.097C28.8889 44.1528 45.0559 27.9858 65 27.9858Z" fill="#F5F5DC"/>
<path d="M79.3506 71.4058C77.7815 69.8368 75.8333 67.885 75.8333 60.2583C75.8333 54.6593 71.7528 50.0154 66.4047 49.1289C66.6647 48.7533 66.8056 48.3055 66.8056 47.8487C66.8056 46.6011 65.7945 45.5918 64.5486 45.5918C63.3028 45.5918 62.2917 46.6011 62.2917 47.8487C62.2917 48.3236 62.4379 48.766 62.6889 49.1289C57.3408 50.0154 53.2639 54.6593 53.2639 60.2583C53.2639 67.885 51.3121 69.8368 49.7431 71.4058C47.6179 73.5328 49.1256 77.189 52.139 77.189H60.0347C60.0347 79.6807 62.0552 81.6993 64.5486 81.6993C67.0421 81.6993 69.0625 79.6807 69.0625 77.189H76.9582C79.9645 77.189 81.4829 73.5382 79.3506 71.4058ZM64.5486 78.8808C64.6985 78.8808 64.8411 78.9404 64.9458 79.0469C65.0524 79.1517 65.112 79.2925 65.112 79.4424C65.112 79.594 65.0524 79.7385 64.9458 79.8432C64.8411 79.9497 64.6985 80.0075 64.5486 80.0075C62.994 80.0075 61.7265 78.7436 61.7265 77.189H62.855C62.855 78.1207 63.6152 78.8808 64.5486 78.8808Z" fill="#E1C699"/>
<g opacity="0.5">
<path d="M65.0003 16.2109C91.9453 16.2109 113.789 38.0551 113.789 65.0001C113.789 91.945 91.9453 113.789 65.0003 113.789C38.0553 113.789 16.2112 91.945 16.2112 65.0001C16.2112 38.0551 38.0553 16.2109 65.0003 16.2109Z" stroke="#F5F5DC" stroke-width="3.8266"/>
</g>
<g opacity="0.0828676">
<path d="M65.0002 1.54834C100.043 1.54834 128.452 29.9568 128.452 64.9999C128.452 100.043 100.043 128.451 65.0002 128.451C29.957 128.451 1.54858 100.043 1.54858 64.9999C1.54858 29.9568 29.957 1.54834 65.0002 1.54834Z" stroke="#F5F5DC" stroke-width="3.57474"/>
</g>
</svg>
