<svg width="25" height="24" viewBox="0 0 25 24" fill="none" xmlns="http://www.w3.org/2000/svg">
<path d="M5.76873 9.7501C5.76748 8.86096 5.94216 7.98035 6.28269 7.15901C6.62323 6.33766 7.1229 5.5918 7.75293 4.96438C8.38296 4.33697 9.13089 3.84041 9.95364 3.50329C10.7764 3.16617 11.6577 2.99516 12.5469 3.0001C16.2594 3.02823 19.2312 6.1126 19.2312 9.83448V10.5001C19.2312 13.8564 19.9344 15.8064 20.5531 16.8751C20.6188 16.9889 20.6535 17.118 20.6536 17.2494C20.6537 17.3809 20.6193 17.51 20.5538 17.624C20.4883 17.7379 20.394 17.8326 20.2803 17.8986C20.1667 17.9647 20.0377 17.9996 19.9062 18.0001H5.09373C4.9623 17.9996 4.83331 17.9647 4.71966 17.8986C4.60601 17.8326 4.51171 17.7379 4.44619 17.624C4.38068 17.51 4.34626 17.3809 4.34637 17.2494C4.34649 17.118 4.38114 16.9889 4.44686 16.8751C5.06561 15.8064 5.76873 13.8564 5.76873 10.5001V9.7501Z" stroke="#E1C699" stroke-width="2" stroke-linecap="round" stroke-linejoin="round"/>
<path d="M9.5 18V18.75C9.5 19.5456 9.81607 20.3087 10.3787 20.8713C10.9413 21.4339 11.7044 21.75 12.5 21.75C13.2956 21.75 14.0587 21.4339 14.6213 20.8713C15.1839 20.3087 15.5 19.5456 15.5 18.75V18" stroke="#E1C699" stroke-width="1.5" stroke-linecap="round" stroke-linejoin="round"/>
</svg>
