<svg width="25" height="24" viewBox="0 0 25 24" fill="none" xmlns="http://www.w3.org/2000/svg">
<g id="Bell">
<path id="Vector" d="M5.76879 9.7501C5.76754 8.86096 5.94222 7.98035 6.28275 7.15901C6.62329 6.33766 7.12296 5.5918 7.75299 4.96438C8.38302 4.33697 9.13095 3.84041 9.95371 3.50329C10.7765 3.16617 11.6578 2.99516 12.5469 3.0001C16.2594 3.02823 19.2313 6.1126 19.2313 9.83448V10.5001C19.2313 13.8564 19.9344 15.8064 20.5532 16.8751C20.6189 16.9889 20.6535 17.118 20.6537 17.2494C20.6538 17.3809 20.6193 17.51 20.5538 17.624C20.4883 17.7379 20.394 17.8326 20.2804 17.8986C20.1667 17.9647 20.0377 17.9996 19.9063 18.0001H5.09379C4.96237 17.9996 4.83337 17.9647 4.71972 17.8986C4.60607 17.8326 4.51177 17.7379 4.44626 17.624C4.38074 17.51 4.34632 17.3809 4.34644 17.2494C4.34655 17.118 4.3812 16.9889 4.44692 16.8751C5.06567 15.8064 5.76879 13.8564 5.76879 10.5001V9.7501Z" stroke="white" stroke-width="2" stroke-linecap="round" stroke-linejoin="round"/>
<path id="Vector_2" d="M9.5 18V18.75C9.5 19.5456 9.81607 20.3087 10.3787 20.8713C10.9413 21.4339 11.7044 21.75 12.5 21.75C13.2956 21.75 14.0587 21.4339 14.6213 20.8713C15.1839 20.3087 15.5 19.5456 15.5 18.75V18" stroke="white" stroke-width="1.5" stroke-linecap="round" stroke-linejoin="round"/>
</g>
</svg>
