<svg width="219" height="192" viewBox="0 0 219 192" fill="none" xmlns="http://www.w3.org/2000/svg">
<g clip-path="url(#clip0_27_384)">
<path d="M118.589 170C147.584 170 171.089 146.495 171.089 117.5C171.089 88.5051 147.584 65 118.589 65C89.5937 65 66.0886 88.5051 66.0886 117.5C66.0886 146.495 89.5937 170 118.589 170Z" fill="#E1C699"/>
<path d="M145.889 96.5L112.289 134.3L91.2886 117.5" stroke="white" stroke-width="2" stroke-miterlimit="10" stroke-linecap="round" stroke-linejoin="round"/>
</g>
<path d="M203.104 94.9067L197.845 92.277C196.276 91.4926 195.64 89.5846 196.425 88.0155L199.054 82.7564C199.839 81.1875 201.747 80.5515 203.316 81.336L208.575 83.9657C210.144 84.7501 210.78 86.6581 209.995 88.2272L207.365 93.4863C206.581 95.0552 204.673 95.6912 203.104 94.9067Z" fill="#FF7115"/>
<path d="M71.0831 58.9597L73.1288 64.7124C73.2165 64.9587 73.3899 65.1539 73.6086 65.2525L78.7195 67.5552C79.4414 67.8805 79.4414 69.0311 78.7195 69.3564L73.6086 71.6591C73.3899 71.7577 73.2163 71.9529 73.1288 72.1992L71.0831 77.9516C70.7941 78.7644 69.7719 78.7644 69.4829 77.9516L67.4369 72.1989C67.3493 71.9526 67.1759 71.7574 66.9572 71.6589L61.846 69.3564C61.1238 69.0311 61.1238 67.8807 61.846 67.5552L66.9569 65.2525C67.1759 65.1539 67.3493 64.9587 67.4367 64.7124L69.4827 58.9597C69.7719 58.1472 70.7939 58.1472 71.0831 58.9597Z" fill="#CAB4EF"/>
<path d="M52.342 155.452L53.8595 159.719C53.9244 159.902 54.053 160.047 54.2155 160.12L58.0067 161.828C58.5424 162.069 58.5424 162.923 58.0067 163.164L54.2155 164.872C54.0532 164.945 53.9246 165.09 53.8595 165.273L52.342 169.54C52.1276 170.143 51.3693 170.143 51.155 169.54L49.6374 165.273C49.5725 165.09 49.4439 164.945 49.2814 164.872L45.4902 163.164C44.9548 162.923 44.9548 162.069 45.4902 161.828L49.2814 160.12C49.4437 160.047 49.5723 159.902 49.6374 159.719L51.155 155.452C51.3693 154.849 52.1274 154.849 52.342 155.452Z" fill="#FFC7B6"/>
<path d="M84.5841 58.3501C85.6484 58.3501 86.5112 57.4874 86.5112 56.4231C86.5112 55.3588 85.6484 54.496 84.5841 54.496C83.5198 54.496 82.657 55.3588 82.657 56.4231C82.657 57.4874 83.5198 58.3501 84.5841 58.3501Z" fill="#B548C6"/>
<path d="M169.086 87.8009C170.151 87.8009 171.013 86.9381 171.013 85.8738C171.013 84.8095 170.151 83.9467 169.086 83.9467C168.022 83.9467 167.159 84.8095 167.159 85.8738C167.159 86.9381 168.022 87.8009 169.086 87.8009Z" fill="#FF7115"/>
<path d="M166.638 61.9662C168.918 61.0213 170 58.4073 169.055 56.1277C168.11 53.848 165.496 52.766 163.216 53.711C160.937 54.6559 159.855 57.2699 160.8 59.5495C161.744 61.8292 164.358 62.9112 166.638 61.9662Z" fill="#3A76EC"/>
<path d="M124.753 53.8371C125.669 53.4046 126.492 52.7439 127.132 51.8689L133.007 43.8319C135.226 40.797 135.624 36.8361 134.046 33.4951L130.948 26.9383C129.369 23.5974 126.057 21.3896 122.303 21.1765L111.656 20.4414L119.085 9.9748C121.13 7.17826 120.52 3.25385 117.724 1.20931C114.927 -0.835241 111.003 -0.22541 108.958 2.57089L103.083 10.6079C100.864 13.6432 100.466 17.6042 102.044 20.9447L105.142 27.5014C106.721 30.8422 110.033 33.0499 113.787 33.2633L124.695 33.5777L117.004 44.465C114.96 47.2615 115.57 51.1859 118.366 53.2305C120.288 54.6356 122.742 54.7872 124.753 53.8371Z" fill="#E1C699"/>
<path d="M111.064 21.3281L111.656 20.4414L122.303 21.1764C125.529 21.3595 128.428 23.0173 130.182 25.6005C128.744 27.7526 127.223 29.8475 125.668 31.9192C125.282 32.4336 124.955 32.9894 124.695 33.5777L113.787 33.2633C110.407 33.0712 107.386 31.2621 105.665 28.4658C107.479 26.0965 109.288 23.7247 111.064 21.3281Z" fill="#E1C699"/>
<path opacity="0.6" d="M175.745 187.065L168.321 191.352C166.107 192.63 163.275 191.872 161.996 189.657L157.71 182.233C156.431 180.018 157.19 177.186 159.405 175.907L166.829 171.621C169.043 170.342 171.875 171.101 173.154 173.316L177.44 180.74C178.719 182.955 177.96 185.787 175.745 187.065Z" fill="#E1C699"/>
<path d="M85.3932 179.738L91.047 178.123C92.7339 177.641 94.4917 178.618 94.9736 180.305L96.5888 185.959C97.0707 187.645 96.094 189.403 94.4072 189.885L88.7533 191.5C87.0665 191.982 85.3087 191.005 84.8267 189.319L83.2116 183.665C82.7298 181.978 83.7066 180.22 85.3932 179.738Z" fill="#B548C6"/>
<path d="M185.025 157.461C185.965 157.839 187.009 157.994 188.085 157.869L197.974 156.721C201.709 156.287 204.886 153.889 206.265 150.461L208.972 143.733C210.351 140.305 209.721 136.374 207.328 133.475L200.634 125.163L213.362 123.504C216.803 123.104 219.268 119.991 218.869 116.55C218.469 113.109 215.356 110.643 211.915 111.042L202.026 112.191C198.291 112.624 195.114 115.023 193.735 118.451L191.028 125.179C189.649 128.607 190.279 132.537 192.672 135.436L199.853 143.655L186.638 145.408C183.197 145.807 180.732 148.92 181.131 152.362C181.406 154.726 182.962 156.631 185.025 157.461Z" fill="#B548C6"/>
<path d="M200.634 125.163L201.339 126.038L207.328 133.475C209.385 135.967 210.138 139.22 209.434 142.262C206.559 142.72 202.751 143.366 199.853 143.656L198.932 142.602L192.672 135.437C190.517 132.826 189.793 129.381 190.676 126.218C193.646 125.939 197.669 125.487 200.634 125.163Z" fill="#B548C6"/>
<path d="M46.9809 115.021C46.2505 115.723 45.3399 116.256 44.2943 116.542L34.6913 119.168C31.0651 120.16 27.2223 119.12 24.6631 116.455L19.6406 111.224C17.0814 108.559 16.1989 104.677 17.3374 101.093L20.4442 90.8838L8.0173 94.096C4.67584 95.0097 1.22612 93.0417 0.312351 89.7003C-0.601423 86.3588 1.36659 82.9093 4.70805 81.9953L14.311 79.3693C17.9378 78.3775 21.7806 79.4172 24.3395 82.0822L29.362 87.3133C31.9212 89.9785 32.8037 93.8603 31.6655 97.4437L28.0719 107.749L40.9853 104.442C44.3268 103.528 47.7765 105.496 48.6903 108.837C49.3183 111.133 48.5852 113.481 46.9809 115.021Z" fill="#3A76EC"/>
<path d="M20.4442 90.884L20.117 91.9594L17.3371 101.094C16.3587 104.174 16.8743 107.473 18.6631 110.032C21.5006 109.384 25.2743 108.562 28.0719 107.749L28.5325 106.428L31.6654 97.4437C32.6901 94.2178 32.0762 90.7504 30.0764 88.1461C27.2164 88.996 23.316 90.0788 20.4442 90.884Z" fill="#3A76EC"/>
<defs>
<clipPath id="clip0_27_384">
<rect width="105" height="105" fill="white" transform="translate(66.0886 65)"/>
</clipPath>
</defs>
</svg>
