<svg width="375" height="300" viewBox="0 0 375 300" fill="none" xmlns="http://www.w3.org/2000/svg">
<path fill-rule="evenodd" clip-rule="evenodd" d="M227.444 39.129C227.119 39.338 226.703 40.052 225.916 41.75C224.549 44.698 224.471 44.774 222.704 44.901C218.548 45.199 217.812 45.553 217.812 47.256C217.812 48.643 218.06 48.909 220.521 50.165C223.446 51.659 223.292 51.429 223.519 54.644C223.726 57.573 223.907 58.137 224.782 58.581C226.337 59.368 227.082 58.792 228.441 55.755C229.766 52.789 229.615 52.901 232.624 52.678C235.435 52.47 235.824 52.314 236.279 51.218C236.958 49.583 236.506 48.937 233.651 47.467C230.843 46.02 230.933 46.158 230.747 43.035C230.526 39.32 229.336 37.913 227.444 39.129ZM229.121 39.659C229.748 39.913 229.895 40.432 230.094 43.125C230.348 46.545 230.288 46.448 233.075 47.917C235.971 49.442 236.191 49.697 235.702 50.945C235.405 51.704 235.181 51.779 232.578 51.992C229.299 52.261 229.398 52.193 228.029 55.156C226.651 58.135 226.237 58.533 225.093 57.977C224.465 57.671 224.266 56.943 224.153 54.536C223.997 51.168 224.018 51.201 220.989 49.657C218.662 48.471 218.437 48.258 218.437 47.253C218.437 46.273 218.964 45.888 220.475 45.767C225.248 45.383 224.827 45.632 226.361 42.285C227.636 39.503 227.965 39.19 229.121 39.659ZM161.25 44.682C152.674 45.859 144.976 50.557 139.706 57.83C139.088 58.683 138.608 59.464 138.64 59.566C138.783 60.023 139.255 59.645 140.177 58.338C152.531 40.803 178.112 40.899 190.415 58.526C194.1 63.806 195.402 67.383 196.959 76.5C197.359 78.837 198.066 82.962 198.531 85.667C198.997 88.371 199.518 91.408 199.689 92.417C199.861 93.425 200.317 96.074 200.704 98.304C201.09 100.533 201.406 102.535 201.406 102.753C201.406 104.783 191.478 107.016 189.458 105.441C189.252 105.281 188.99 104.066 188.353 100.324C187.894 97.625 186.982 92.304 186.327 88.5C185.673 84.696 184.89 80.121 184.589 78.333C183.706 73.102 183.132 71.12 181.803 68.7C175.395 57.037 160.589 54.965 151.718 64.491C146.932 69.631 145.235 76.09 146.615 83.917C147.134 86.861 148.074 92.308 148.83 96.75C149.127 98.492 149.437 100.292 149.521 100.75C149.604 101.208 149.928 103.083 150.24 104.917C150.552 106.75 150.977 109.22 151.184 110.406C151.627 112.947 151.615 112.99 150.209 113.79C148.025 115.032 144.922 115.737 142.08 115.638C139.148 115.536 139.398 115.885 138.532 110.667C138.403 109.888 137.91 107 137.437 104.25C133.421 80.894 133.492 81.396 133.657 77.467C133.761 75.018 134.134 72.391 134.694 70.176C134.987 69.022 135.007 68.774 134.827 68.652C134.046 68.127 132.963 74.21 132.976 79.047C132.984 82.212 133.096 83.067 134.757 92.667C136.728 104.055 137.187 106.786 137.187 107.118C137.187 107.395 136.891 107.491 134.817 107.889C130.778 108.664 129.032 110.212 128.676 113.333C128.562 114.328 128.583 114.486 129.522 119.917C129.871 121.933 130.476 125.458 130.867 127.75C132.001 134.403 132.073 134.738 132.382 134.802C132.811 134.889 132.837 135.095 131.18 125.555C130.875 123.798 130.625 122.278 130.625 122.176C130.625 122.075 130.981 122.292 131.416 122.659C132.232 123.348 133.846 124 134.731 124C135.17 124 139.183 123.239 151.934 120.738C154.502 120.235 159.458 119.267 162.95 118.587C166.441 117.907 171.406 116.938 173.984 116.433C176.562 115.928 180.817 115.101 183.438 114.595C186.059 114.089 188.414 113.631 188.672 113.578C189.342 113.439 190.848 113.144 196.25 112.094C206.862 110.032 207.603 109.874 208.357 109.518C209.277 109.084 210.53 107.815 210.949 106.892C211.399 105.901 211.096 104.508 213.506 118.667C213.81 120.454 214.164 122.517 214.293 123.25C214.537 124.648 215.328 129.236 216.39 135.417C216.737 137.433 217.264 140.494 217.562 142.218L218.103 145.353L215.761 154.718C214.473 159.869 213.209 164.929 212.953 165.963C212.696 166.997 212.452 167.941 212.408 168.061C212.353 168.215 212.732 168.391 213.704 168.661C215.586 169.185 216.181 170.015 214.922 170.359C214.526 170.467 204.866 172.379 202.422 172.833C201.992 172.913 198.723 173.549 195.157 174.248C191.589 174.946 186.562 175.929 183.984 176.431C181.406 176.934 177.187 177.76 174.609 178.267C169.729 179.227 165.324 180.085 163.985 180.338C163.554 180.419 162.64 180.596 161.953 180.733C161.266 180.869 158.558 181.394 155.937 181.901C153.316 182.407 150.82 182.898 150.391 182.991C146.11 183.925 144.473 183.696 142.361 181.867C140.745 180.468 140.49 179.756 139.452 173.75C138.104 165.953 137.639 163.251 137.503 162.417C137.372 161.621 137.12 160.146 135.86 152.833C135.552 151.046 135.204 149.021 135.088 148.333C134.971 147.646 134.752 146.352 134.6 145.458C134.369 144.099 134.277 143.833 134.037 143.833C133.65 143.833 133.663 144.077 134.226 147.333C134.487 148.846 134.943 151.508 135.239 153.25C135.535 154.992 135.884 157.017 136.013 157.75C136.143 158.483 136.987 163.396 137.89 168.667C140.062 181.346 140.267 181.881 143.567 183.545C145.912 184.728 144.174 184.955 166.953 180.493C171.164 179.669 176.895 178.549 179.688 178.004C191.976 175.61 197.947 174.444 203.203 173.412C206.297 172.805 209.145 172.249 209.531 172.178C209.917 172.107 211.307 171.838 212.618 171.581C215.325 171.051 215.218 171.033 214.957 171.995C214.678 173.021 214.461 173.115 213.182 172.759C211.079 172.174 211.502 171.511 210.037 177.692C209.972 177.968 210.245 178.085 212.295 178.658C213.148 178.896 213.193 179.118 212.746 180.894C212.232 182.938 212.257 182.922 210.487 182.404C209.686 182.17 209.007 182.004 208.978 182.034C208.949 182.065 208.5 183.776 207.98 185.837C207.458 187.897 206.813 190.446 206.546 191.5C205.203 196.794 207.449 201.049 212.013 201.853C216.167 202.585 218.959 200.021 220.386 194.167C220.709 192.838 221.378 190.137 221.873 188.167C222.367 186.196 223.104 183.233 223.51 181.583C223.916 179.933 224.339 178.246 224.45 177.833C224.748 176.721 225.081 175.401 225.858 172.25C226.243 170.692 226.665 169.004 226.795 168.5C226.927 167.996 227.348 166.308 227.733 164.75C228.118 163.192 228.54 161.504 228.67 161C228.802 160.496 229.225 158.818 229.612 157.272C231.557 149.51 231.528 149.667 231.025 149.667C230.896 149.667 230.661 150.301 230.392 151.375C230.158 152.315 229.867 153.458 229.745 153.917C229.623 154.375 229.103 156.438 228.591 158.5C228.078 160.563 227.131 164.35 226.486 166.917C225.841 169.483 223.9 177.246 222.172 184.167C219.91 193.229 218.898 197.018 218.557 197.706C216.557 201.745 211.259 202.402 208.354 198.972C206.572 196.868 206.372 194.776 207.527 190.333C207.92 188.821 208.509 186.512 208.837 185.202C209.236 183.605 209.494 182.846 209.619 182.898C211.389 183.622 212.638 183.545 212.947 182.694C214.148 179.368 213.969 178.401 212.048 177.843C211.413 177.659 210.871 177.485 210.845 177.457C210.774 177.382 211.731 173.438 211.853 173.298C211.911 173.233 212.478 173.322 213.114 173.497C214.552 173.892 215.179 173.706 215.441 172.808C216.559 168.991 216.492 168.704 214.336 168.086C213.756 167.92 213.281 167.71 213.281 167.62C213.281 167.438 213.835 165.151 215.004 160.5C215.431 158.804 216.202 155.729 216.715 153.667C217.23 151.604 217.758 149.504 217.889 149C218.02 148.496 218.539 146.433 219.041 144.417C220.699 137.774 221.902 132.969 222.832 129.28C223.962 124.804 223.972 125.197 222.696 124.233C212.763 116.74 211.385 100.174 219.927 90.958C220.91 89.898 221.142 89.333 220.597 89.333C220.308 89.333 218.568 91.383 217.482 93C210.931 102.768 212.819 116.907 221.658 124.269C223.087 125.46 223.132 125.565 222.747 126.845C222.625 127.251 222.197 128.933 221.795 130.583C221.393 132.233 220.972 133.921 220.859 134.333C220.747 134.746 220.326 136.433 219.923 138.083C219.52 139.733 219.098 141.421 218.985 141.833C218.871 142.246 218.733 142.798 218.678 143.061C218.505 143.892 218.755 145.206 215.701 127.417C215.134 124.117 214.432 120.029 214.14 118.333C213.848 116.638 213.571 115.025 213.524 114.75C213.477 114.475 213.227 113.013 212.969 111.5C212.346 107.856 212.434 108.371 211.552 103.167C210.175 95.05 208.568 93.439 202.983 94.575C201.83 94.81 200.869 94.982 200.845 94.957C200.823 94.933 200.445 92.814 200.005 90.248C199.567 87.682 198.72 82.733 198.124 79.25C196.721 71.049 196.641 70.652 195.842 68.058C191.079 52.58 176.329 42.611 161.25 44.682ZM168.884 59.57C176.671 61.373 182.057 67.461 183.509 76.102C183.631 76.825 183.978 78.842 184.281 80.583C185.913 89.986 187.186 97.557 187.142 97.604C187.08 97.67 185.162 98.061 179.062 99.25C176.441 99.761 170.254 100.969 165.312 101.935C160.372 102.901 156.011 103.75 155.625 103.822C155.238 103.895 154.054 104.122 152.992 104.327C150.71 104.769 150.91 104.928 150.475 102.333C150.121 100.217 149.67 97.592 147.97 87.75C146.364 78.457 146.398 76.039 148.2 71.311C151.453 62.769 160.507 57.63 168.884 59.57ZM233.242 83.341C230.993 83.557 227.844 84.384 227.695 84.798C227.538 85.237 227.895 85.346 228.605 85.075C236.616 82.005 246.475 85.319 251.811 92.875C262.098 107.442 252.502 128.256 235.356 128.565C234.219 128.585 233.235 128.66 233.168 128.731C232.89 129.028 233.683 129.333 234.735 129.333H235.816L235.708 129.958C235.609 130.53 235.206 132.158 232.993 140.917C232.233 143.926 232.181 144.392 232.619 144.3C232.779 144.266 233.047 143.485 233.46 141.833C236.896 128.128 236.565 129.174 237.468 129.169C239.039 129.161 242.601 128.033 244.844 126.832C254.519 121.651 259.076 109.516 255.457 98.571C252.21 88.757 242.955 82.411 233.242 83.341ZM237.146 88.004C232.575 89.232 231.743 96.062 235.892 98.307C239.492 100.254 243.543 97.545 243.497 93.219C243.46 89.83 240.229 87.176 237.146 88.004ZM240.234 89.06C244.441 91.159 243.265 97.812 238.631 98.132C233.686 98.474 231.984 91.293 236.482 89.06C237.571 88.518 239.149 88.518 240.234 89.06ZM207.468 95.478C209.167 96.413 209.951 97.722 210.379 100.333C210.521 101.204 210.711 102.367 210.801 102.917C211.215 105.447 210.204 107.702 208.16 108.815C207.664 109.084 201.392 110.42 196.328 111.335C195.898 111.412 193.789 111.823 191.641 112.248C189.492 112.672 186.047 113.349 183.984 113.751C181.922 114.153 177.316 115.053 173.75 115.75C170.183 116.447 164.418 117.572 160.938 118.25C157.457 118.929 152.078 119.98 148.985 120.586C145.891 121.193 143.008 121.755 142.578 121.835C142.148 121.916 140.425 122.253 138.75 122.585C132.355 123.851 130.744 122.891 129.746 117.22C128.802 111.858 129.997 109.534 134.096 108.759C134.808 108.625 135.77 108.436 136.232 108.341C137.475 108.084 137.46 108.076 137.576 109.042C137.633 109.523 137.738 110.179 137.809 110.5C137.879 110.821 138.092 112.021 138.281 113.167C138.772 116.126 139.158 116.415 142.578 116.387C147.049 116.351 152.187 114.343 152.187 112.634C152.187 112.446 151.932 110.797 151.62 108.969C151.297 107.073 151.112 105.587 151.191 105.511C151.266 105.437 154.316 104.798 157.969 104.09C164.615 102.801 171.537 101.452 181.797 99.445C184.805 98.857 187.282 98.39 187.303 98.408C187.324 98.426 187.617 100.036 187.956 101.985C188.373 104.394 188.657 105.632 188.842 105.849C190.574 107.892 200.692 105.935 201.963 103.312C202.16 102.908 201.746 99.8 201.011 96.153C200.925 95.726 200.941 95.718 202.454 95.429C203.296 95.268 204.054 95.107 204.141 95.071C204.637 94.866 206.845 95.136 207.468 95.478ZM257.694 112.544C257.611 112.657 257.347 113.388 257.11 114.167C255.344 119.963 250.952 125.478 245.977 128.147C245.061 128.639 244.788 129.007 245.16 129.252C245.248 129.31 245.857 129.049 246.514 128.671C251.635 125.725 255.883 120.343 257.724 114.471C258.233 112.845 258.218 111.838 257.694 112.544ZM240.885 148.778C240.626 149.054 240.771 193.506 241.031 193.613C241.169 193.669 241.343 193.611 241.419 193.483C241.573 193.224 241.62 149.354 241.468 148.93C241.371 148.659 241.07 148.581 240.885 148.778ZM122.044 171.128C121.749 171.301 121.375 171.699 121.212 172.013C120.897 172.619 120.896 172.512 121.257 176.167C121.487 178.495 121.512 178.443 119.362 180.1C116.622 182.212 116.198 183.005 117.031 184.46C117.631 185.51 118.085 185.604 120.955 185.274C123.983 184.925 123.742 184.819 125.338 187.197C127.18 189.942 127.626 190.286 128.906 189.945C130.371 189.556 130.567 188.903 130.228 185.546C129.895 182.247 129.764 182.552 132.352 180.571C134.731 178.749 135.185 177.815 134.373 176.412C133.776 175.381 133.327 175.286 130.595 175.61C127.452 175.983 127.629 176.057 126.035 173.704C124.055 170.783 123.375 170.344 122.044 171.128ZM123.643 171.694C124.041 171.92 124.007 171.875 125.584 174.226C127.244 176.701 127.266 176.709 130.938 176.262C133.372 175.965 134.062 176.269 134.062 177.637C134.062 178.316 133.782 178.626 131.722 180.217C129.103 182.241 129.156 182.043 129.788 187.509C129.91 188.569 129.335 189.333 128.411 189.333C127.652 189.333 127.426 189.104 125.727 186.606C124.106 184.222 124.094 184.216 121.181 184.568C118.32 184.914 118.333 184.915 117.801 184.346C116.78 183.257 117.121 182.616 119.799 180.601C122.194 178.8 122.167 178.869 121.807 175.373C121.548 172.841 121.546 172.635 121.79 172.239C122.206 171.561 122.999 171.328 123.643 171.694ZM149.872 191.537C149.587 191.84 149.609 209.89 149.894 210.142C150.439 210.624 150.469 210.141 150.469 200.82C150.469 191.416 150.438 190.933 149.872 191.537ZM196.795 194.194C196.569 194.826 196.8 220.75 197.032 220.75C197.352 220.75 197.392 194.156 197.07 194.042C196.963 194.004 196.839 194.072 196.795 194.194ZM133.007 212.279C133.042 222.642 133.075 224.083 133.282 224.083C133.672 224.083 133.632 200.612 133.241 200.532C132.982 200.478 132.968 201.097 133.007 212.279ZM133.282 260.667C133.282 261.158 242.069 261.116 242.158 260.625C242.208 260.348 239.533 260.333 187.746 260.333C133.372 260.333 133.282 260.334 133.282 260.667Z" fill="#E1C699" stroke="#E1C699"/>
<path fill-rule="evenodd" clip-rule="evenodd" d="M230.662 41.833C230.662 42.154 230.693 42.285 230.733 42.125C230.772 41.965 230.772 41.702 230.733 41.542C230.693 41.381 230.662 41.512 230.662 41.833ZM230.824 44.333C230.824 44.746 230.855 44.915 230.891 44.708C230.929 44.502 230.929 44.165 230.891 43.958C230.855 43.752 230.824 43.921 230.824 44.333ZM164.094 44.457C164.671 44.489 165.655 44.489 166.282 44.457C166.909 44.426 166.437 44.399 165.234 44.399C164.032 44.399 163.519 44.425 164.094 44.457ZM221.836 44.951C222.029 44.991 222.346 44.991 222.539 44.951C222.732 44.911 222.574 44.879 222.187 44.879C221.801 44.879 221.643 44.911 221.836 44.951ZM163.01 45.286C163.248 45.325 163.599 45.324 163.792 45.284C163.984 45.244 163.789 45.213 163.359 45.214C162.93 45.216 162.772 45.248 163.01 45.286ZM166.76 45.286C166.998 45.325 167.349 45.324 167.542 45.284C167.734 45.244 167.539 45.213 167.109 45.214C166.68 45.216 166.522 45.248 166.76 45.286ZM223.164 45.615C223.314 45.657 223.561 45.657 223.711 45.615C223.861 45.573 223.738 45.539 223.437 45.539C223.136 45.539 223.013 45.573 223.164 45.615ZM220.822 45.786C221.06 45.825 221.411 45.824 221.603 45.784C221.796 45.744 221.602 45.713 221.172 45.714C220.742 45.716 220.585 45.748 220.822 45.786ZM231.237 46.061C231.445 46.334 232.031 46.747 232.031 46.621C232.031 46.589 231.802 46.384 231.523 46.166C231.209 45.921 231.1 45.881 231.237 46.061ZM217.699 47.333C217.699 47.746 217.73 47.915 217.766 47.708C217.804 47.502 217.804 47.165 217.766 46.958C217.73 46.752 217.699 46.921 217.699 47.333ZM232.776 51.951C232.97 51.991 233.251 51.99 233.4 51.948C233.55 51.906 233.391 51.874 233.047 51.875C232.703 51.877 232.581 51.911 232.776 51.951ZM223.321 52.917C223.323 53.283 223.355 53.414 223.392 53.206C223.429 52.999 223.428 52.699 223.388 52.54C223.349 52.38 223.319 52.55 223.321 52.917ZM231.916 52.786C232.154 52.825 232.506 52.824 232.698 52.784C232.89 52.744 232.695 52.713 232.266 52.714C231.836 52.716 231.679 52.748 231.916 52.786ZM142.807 55.125L141.953 56.083L142.852 55.172C143.686 54.326 143.822 54.167 143.706 54.167C143.681 54.167 143.277 54.598 142.807 55.125ZM187.5 55.083C187.967 55.587 188.384 56 188.427 56C188.469 56 188.123 55.587 187.657 55.083C187.19 54.579 186.772 54.167 186.729 54.167C186.686 54.167 187.033 54.579 187.5 55.083ZM223.474 55.167C223.474 55.487 223.506 55.619 223.545 55.458C223.584 55.298 223.584 55.035 223.545 54.875C223.506 54.715 223.474 54.846 223.474 55.167ZM224.261 56.167C224.261 56.579 224.292 56.748 224.329 56.542C224.366 56.335 224.366 55.998 224.329 55.792C224.292 55.585 224.261 55.754 224.261 56.167ZM164.645 58.454C164.922 58.49 165.414 58.491 165.739 58.455C166.063 58.419 165.836 58.389 165.234 58.388C164.632 58.387 164.367 58.417 164.645 58.454ZM164.42 59.29C164.917 59.323 165.691 59.323 166.138 59.289C166.586 59.256 166.179 59.229 165.234 59.229C164.289 59.229 163.923 59.257 164.42 59.29ZM152.105 65.042L151.172 66.083L152.149 65.089C152.686 64.541 153.125 64.073 153.125 64.047C153.125 63.924 152.971 64.074 152.105 65.042ZM178.118 64.875C178.766 65.611 178.906 65.743 178.906 65.618C178.906 65.591 178.572 65.235 178.164 64.826L177.422 64.083L178.118 64.875ZM133.654 78.833C133.654 79.979 133.679 80.448 133.709 79.875C133.74 79.302 133.74 78.365 133.709 77.792C133.679 77.219 133.654 77.688 133.654 78.833ZM132.869 78.833C132.869 79.704 132.895 80.06 132.927 79.625C132.96 79.19 132.96 78.477 132.927 78.042C132.895 77.606 132.869 77.962 132.869 78.833ZM146.768 78.833C146.768 79.429 146.797 79.673 146.832 79.375C146.867 79.077 146.867 78.59 146.832 78.292C146.797 77.994 146.768 78.237 146.768 78.833ZM145.98 78.833C145.98 79.246 146.011 79.415 146.047 79.208C146.085 79.002 146.085 78.665 146.047 78.458C146.011 78.252 145.98 78.421 145.98 78.833ZM133.786 82.5C133.786 82.821 133.819 82.952 133.858 82.792C133.897 82.631 133.897 82.369 133.858 82.208C133.819 82.048 133.786 82.179 133.786 82.5ZM233.479 83.286C233.716 83.325 234.067 83.324 234.26 83.284C234.452 83.244 234.258 83.213 233.828 83.214C233.398 83.216 233.242 83.248 233.479 83.286ZM235.976 83.286C236.212 83.324 236.6 83.324 236.836 83.286C237.072 83.248 236.879 83.217 236.407 83.217C235.933 83.217 235.74 83.248 235.976 83.286ZM250.39 90C250.814 90.458 251.196 90.833 251.238 90.833C251.281 90.833 250.97 90.458 250.547 90C250.124 89.542 249.742 89.167 249.699 89.167C249.656 89.167 249.967 89.542 250.39 90ZM249.844 90.583C250.398 91.179 250.885 91.667 250.928 91.667C250.972 91.667 250.553 91.179 250 90.583C249.446 89.987 248.958 89.5 248.916 89.5C248.872 89.5 249.29 89.987 249.844 90.583ZM208.75 95.385C208.75 95.414 208.978 95.658 209.257 95.927L209.766 96.417L209.306 95.875C208.879 95.37 208.75 95.257 208.75 95.385ZM208.75 96.583C209.042 96.904 209.316 97.167 209.358 97.167C209.401 97.167 209.197 96.904 208.906 96.583C208.614 96.263 208.341 96 208.298 96C208.255 96 208.459 96.263 208.75 96.583ZM241.945 97.375L241.328 98.083L241.992 97.425C242.61 96.812 242.728 96.667 242.61 96.667C242.585 96.667 242.286 96.985 241.945 97.375ZM214.258 104.75C214.26 105.117 214.292 105.247 214.329 105.04C214.367 104.832 214.365 104.532 214.327 104.373C214.287 104.214 214.256 104.383 214.258 104.75ZM213.497 106.25C213.498 107.35 213.523 107.778 213.553 107.202C213.584 106.625 213.584 105.725 213.553 105.202C213.522 104.678 213.497 105.15 213.497 106.25ZM255.991 106.25C255.992 106.983 256.019 107.263 256.052 106.871C256.085 106.479 256.085 105.879 256.051 105.537C256.017 105.196 255.991 105.517 255.991 106.25ZM191.606 105.956C192.017 105.99 192.65 105.99 193.012 105.955C193.375 105.92 193.039 105.892 192.265 105.892C191.492 105.893 191.196 105.922 191.606 105.956ZM191.677 106.787C191.953 106.824 192.445 106.824 192.77 106.788C193.094 106.752 192.867 106.722 192.265 106.721C191.664 106.721 191.399 106.75 191.677 106.787ZM214.255 107.833C214.255 108.154 214.287 108.285 214.327 108.125C214.366 107.965 214.366 107.702 214.327 107.542C214.287 107.381 214.255 107.513 214.255 107.833ZM209.912 108.375L209.453 108.917L209.961 108.427C210.434 107.971 210.541 107.833 210.42 107.833C210.393 107.833 210.164 108.077 209.912 108.375ZM220.312 122.083C220.779 122.587 221.197 123 221.24 123C221.282 123 220.936 122.587 220.469 122.083C220.002 121.579 219.585 121.167 219.542 121.167C219.499 121.167 219.846 121.579 220.312 122.083ZM251.085 121.792L250.547 122.417L251.133 121.842C251.455 121.526 251.719 121.245 251.719 121.217C251.719 121.09 251.587 121.21 251.085 121.792ZM249.679 123.292L249.141 123.917L249.727 123.342C250.272 122.808 250.385 122.667 250.265 122.667C250.239 122.667 249.975 122.948 249.679 123.292ZM251.871 124.458L250.859 125.583L251.914 124.505C252.494 123.912 252.968 123.405 252.968 123.38C252.968 123.257 252.81 123.413 251.871 124.458ZM250.693 124.542L250.235 125.083L250.742 124.594C251.215 124.138 251.322 124 251.201 124C251.174 124 250.945 124.244 250.693 124.542ZM234.649 128.621C234.928 128.658 235.385 128.658 235.664 128.621C235.943 128.584 235.715 128.553 235.156 128.553C234.597 128.553 234.369 128.584 234.649 128.621ZM124.062 171.052C124.062 171.081 124.291 171.325 124.57 171.594L125.078 172.083L124.619 171.542C124.192 171.037 124.062 170.923 124.062 171.052ZM121.605 173.167C121.605 173.579 121.636 173.748 121.672 173.542C121.71 173.335 121.71 172.998 121.672 172.792C121.636 172.585 121.605 172.754 121.605 173.167ZM121.13 175.667C121.13 175.987 121.162 176.119 121.202 175.958C121.24 175.798 121.24 175.535 121.202 175.375C121.162 175.215 121.13 175.346 121.13 175.667ZM128.789 175.782C128.939 175.823 129.186 175.823 129.336 175.782C129.487 175.74 129.363 175.705 129.063 175.705C128.762 175.705 128.639 175.74 128.789 175.782ZM131.133 176.282C131.283 176.323 131.529 176.323 131.679 176.282C131.83 176.24 131.707 176.205 131.407 176.205C131.106 176.205 130.983 176.24 131.133 176.282ZM127.929 176.618C128.123 176.657 128.439 176.657 128.632 176.618C128.827 176.578 128.668 176.545 128.281 176.545C127.895 176.545 127.736 176.578 127.929 176.618ZM121.289 177.583C121.291 177.95 121.323 178.08 121.36 177.873C121.398 177.666 121.397 177.366 121.357 177.206C121.318 177.047 121.288 177.217 121.289 177.583ZM134.723 177.667C134.723 177.987 134.756 178.119 134.796 177.958C134.834 177.798 134.834 177.535 134.796 177.375C134.756 177.215 134.723 177.346 134.723 177.667ZM141.875 181.417C142.166 181.737 142.44 182 142.483 182C142.526 182 142.323 181.737 142.031 181.417C141.74 181.096 141.466 180.833 141.423 180.833C141.38 180.833 141.583 181.096 141.875 181.417ZM117.256 181.708L116.797 182.25L117.305 181.76C117.584 181.491 117.813 181.248 117.813 181.219C117.813 181.09 117.683 181.203 117.256 181.708ZM130.044 183.417C130.046 183.875 130.076 184.043 130.112 183.789C130.148 183.536 130.147 183.161 130.11 182.956C130.072 182.751 130.043 182.958 130.044 183.417ZM118.635 184.786C118.872 184.825 119.224 184.824 119.416 184.784C119.608 184.744 119.414 184.713 118.985 184.714C118.554 184.716 118.398 184.748 118.635 184.786ZM122.852 185.115C123.002 185.157 123.248 185.157 123.398 185.115C123.548 185.073 123.426 185.039 123.125 185.039C122.824 185.039 122.701 185.073 122.852 185.115ZM121.289 185.282C121.439 185.323 121.686 185.323 121.836 185.282C121.987 185.24 121.863 185.205 121.563 185.205C121.262 185.205 121.139 185.24 121.289 185.282ZM118.477 185.615C118.627 185.657 118.873 185.657 119.023 185.615C119.174 185.573 119.05 185.539 118.75 185.539C118.449 185.539 118.327 185.573 118.477 185.615ZM129.567 186.167C129.567 186.487 129.6 186.619 129.639 186.458C129.678 186.298 129.678 186.035 129.639 185.875C129.6 185.715 129.567 185.846 129.567 186.167ZM129.724 187.833C129.724 188.154 129.756 188.285 129.795 188.125C129.834 187.965 129.834 187.702 129.795 187.542C129.756 187.381 129.724 187.512 129.724 187.833ZM206.768 194.5C206.768 195.096 206.797 195.34 206.832 195.042C206.867 194.744 206.867 194.256 206.832 193.958C206.797 193.66 206.768 193.904 206.768 194.5ZM205.985 194.5C205.985 195.004 206.014 195.21 206.049 194.958C206.085 194.706 206.085 194.294 206.049 194.042C206.014 193.79 205.985 193.996 205.985 194.5ZM196.667 194.111C196.522 194.265 196.535 220.629 196.68 220.724C196.744 220.767 196.797 214.771 196.797 207.401C196.797 200.03 196.791 194 196.784 194C196.777 194 196.724 194.05 196.667 194.111ZM197.418 207.417C197.418 214.658 197.437 217.597 197.461 213.946C197.484 210.295 197.484 204.37 197.461 200.779C197.437 197.188 197.418 200.175 197.418 207.417ZM207.968 199.75C208.26 200.071 208.534 200.333 208.577 200.333C208.62 200.333 208.417 200.071 208.125 199.75C207.833 199.429 207.56 199.167 207.517 199.167C207.473 199.167 207.677 199.429 207.968 199.75ZM217.96 199.792L217.422 200.417L218.008 199.842C218.553 199.308 218.665 199.167 218.546 199.167C218.52 199.167 218.257 199.448 217.96 199.792ZM132.887 212.25C132.887 218.667 132.906 221.267 132.93 218.029C132.953 214.791 132.953 209.541 132.93 206.363C132.906 203.184 132.887 205.833 132.887 212.25ZM133.668 212.333C133.668 218.704 133.687 221.31 133.711 218.125C133.734 214.94 133.734 209.727 133.711 206.542C133.687 203.356 133.668 205.963 133.668 212.333ZM160.417 260.292C175.385 260.315 199.924 260.315 214.948 260.292C229.972 260.268 217.727 260.249 187.734 260.249C157.742 260.249 145.449 260.268 160.417 260.292Z" fill="#E1C699"/>
<path fill-rule="evenodd" clip-rule="evenodd" d="M222.851 44.782C223.002 44.823 223.248 44.823 223.399 44.782C223.549 44.74 223.426 44.705 223.125 44.705C222.824 44.705 222.701 44.74 222.851 44.782ZM164.652 45.289C165.02 45.324 165.582 45.324 165.903 45.288C166.222 45.252 165.922 45.223 165.234 45.224C164.547 45.224 164.285 45.254 164.652 45.289ZM222.07 45.782C222.22 45.823 222.467 45.823 222.617 45.782C222.768 45.74 222.644 45.705 222.344 45.705C222.043 45.705 221.92 45.74 222.07 45.782ZM233.946 51.782C234.096 51.823 234.342 51.823 234.492 51.782C234.642 51.74 234.519 51.705 234.218 51.705C233.917 51.705 233.795 51.74 233.946 51.782ZM233.164 52.782C233.315 52.823 233.56 52.823 233.711 52.782C233.861 52.74 233.738 52.705 233.438 52.705C233.137 52.705 233.014 52.74 233.164 52.782ZM188.438 54.885C188.438 54.914 188.666 55.158 188.946 55.427L189.453 55.917L188.994 55.375C188.567 54.87 188.438 54.757 188.438 54.885ZM223.474 56.167C223.474 56.487 223.506 56.619 223.545 56.458C223.584 56.298 223.584 56.035 223.545 55.875C223.506 55.715 223.474 55.846 223.474 56.167ZM178.906 64.552C178.906 64.581 179.135 64.825 179.414 65.094L179.922 65.583L179.463 65.042C179.035 64.537 178.906 64.423 178.906 64.552ZM132.848 76.833C132.848 77.154 132.881 77.285 132.921 77.125C132.959 76.965 132.959 76.702 132.921 76.542C132.881 76.381 132.848 76.512 132.848 76.833ZM145.977 77.583C145.979 77.95 146.011 78.08 146.048 77.873C146.085 77.666 146.084 77.366 146.045 77.206C146.005 77.047 145.975 77.217 145.977 77.583ZM145.977 80.083C145.979 80.45 146.011 80.58 146.048 80.373C146.085 80.166 146.084 79.866 146.045 79.706C146.005 79.547 145.975 79.717 145.977 80.083ZM132.848 80.833C132.848 81.154 132.881 81.285 132.921 81.125C132.959 80.965 132.959 80.702 132.921 80.542C132.881 80.381 132.848 80.512 132.848 80.833ZM238.088 87.785C238.283 87.824 238.564 87.823 238.713 87.781C238.862 87.739 238.703 87.707 238.359 87.709C238.015 87.711 237.893 87.745 238.088 87.785ZM219.6 90.042L219.141 90.583L219.649 90.094C220.122 89.638 220.228 89.5 220.107 89.5C220.08 89.5 219.852 89.744 219.6 90.042ZM220.156 90.75C219.776 91.162 219.502 91.5 219.545 91.5C219.587 91.5 219.933 91.162 220.312 90.75C220.692 90.337 220.968 90 220.925 90C220.882 90 220.536 90.337 220.156 90.75ZM256.775 106.333C256.775 107.204 256.802 107.56 256.834 107.125C256.866 106.69 256.866 105.977 256.834 105.542C256.802 105.106 256.775 105.462 256.775 106.333ZM214.268 106.333C214.268 106.929 214.298 107.173 214.332 106.875C214.367 106.577 214.367 106.09 214.332 105.792C214.298 105.494 214.268 105.737 214.268 106.333ZM130.069 109.875L129.609 110.417L130.118 109.927C130.397 109.658 130.625 109.414 130.625 109.385C130.625 109.257 130.496 109.37 130.069 109.875ZM128.474 114C128.474 114.321 128.506 114.452 128.545 114.292C128.585 114.131 128.585 113.869 128.545 113.708C128.506 113.548 128.474 113.679 128.474 114ZM249.759 122.042L248.984 122.917L249.804 122.09C250.256 121.635 250.625 121.241 250.625 121.215C250.625 121.09 250.48 121.229 249.759 122.042ZM234.57 129.453C234.806 129.491 235.193 129.491 235.43 129.453C235.666 129.415 235.473 129.383 235 129.383C234.527 129.383 234.334 129.415 234.57 129.453ZM240.701 171.167C240.701 183.404 240.719 188.41 240.743 182.292C240.765 176.173 240.765 166.16 240.743 160.042C240.719 153.923 240.701 158.929 240.701 171.167ZM122.775 184.285C122.97 184.324 123.251 184.323 123.4 184.281C123.549 184.239 123.391 184.207 123.047 184.209C122.703 184.211 122.581 184.245 122.775 184.285ZM146.291 184.453C146.528 184.491 146.88 184.49 147.072 184.451C147.264 184.411 147.07 184.38 146.641 184.381C146.211 184.382 146.054 184.415 146.291 184.453ZM150.542 200.833C150.542 205.921 150.562 208.002 150.586 205.458C150.61 202.915 150.61 198.752 150.586 196.208C150.562 193.665 150.542 195.746 150.542 200.833Z" fill="#E1C699"/>
<ellipse cx="157.969" cy="148.5" rx="2.34375" ry="2.5" fill="#E1C699"/>
<ellipse cx="2.35039" cy="2.49376" rx="2.35039" ry="2.49376" transform="matrix(0.976427 -0.215848 0.190723 0.981644 166.448 145.559)" fill="#E1C699"/>
<ellipse cx="2.34776" cy="2.49624" rx="2.34776" ry="2.49624" transform="matrix(0.985814 -0.167844 0.147994 0.988988 177.785 144.425)" fill="#E1C699"/>
<ellipse cx="191.719" cy="145.5" rx="2.34375" ry="2.5" fill="#E1C699"/>
</svg>
